<?xml version="1.0" standalone="no"?>
<!DOCTYPE svg PUBLIC "-//W3C//DTD SVG 1.1//EN" "http://www.w3.org/Graphics/SVG/1.1/DTD/svg11.dtd" >
<svg xmlns="http://www.w3.org/2000/svg">
<metadata></metadata>
<defs>
<font id="formal_436regular" horiz-adv-x="1024" >
<font-face units-per-em="2048" ascent="1638" descent="-410" />
<missing-glyph horiz-adv-x="577" />
<glyph unicode="&#xfb01;" horiz-adv-x="1241" d="M0 862q0 12 2 19l35 114h209v52q0 262 107.5 389t338.5 127q41 0 76 -5.5t66 -13.5l-46 -123q-37 10 -69 11q-125 0 -178.5 -100.5t-53.5 -309.5v-27h306q141 0 337 25l-51 -1020l-200 -25l-2 848q-27 33 -73 43.5t-114 10.5q-117 0 -163 -28t-48 -104l-18 -493 q-6 -143 -13.5 -254t-29 -186.5t-61.5 -114.5t-109 -39q-25 0 -25 16q0 4 3 23.5t8.5 62.5t8.5 114t3 175v803l-213 -2q-18 0 -25.5 1t-7.5 11zM856 1399q0 66 47 115t117 49q68 0 116 -48.5t48 -115.5q0 -35 -13.5 -64.5t-36 -52t-52 -35t-62.5 -12.5t-62.5 13.5t-52 36 t-36 52t-13.5 62.5z" />
<glyph unicode="&#xfb02;" horiz-adv-x="1218" d="M0 862q0 12 2 19l35 114h209v52q0 262 107.5 389t338.5 127q74 0 141.5 -16.5t139.5 -16.5q29 0 65.5 2t83.5 8l-53 -1540l-184 -25l-13 1395q-59 61 -153 62q-125 0 -178.5 -101.5t-53.5 -308.5v-27h306q29 0 28 -22q0 -12 -10 -37t-27 -41q-20 -20 -43.5 -21.5 t-60.5 -5.5q-49 -4 -86 -5t-61.5 -12t-38 -34.5t-15.5 -71.5l-18 -493q-6 -143 -13.5 -254t-29 -186.5t-61.5 -114.5t-109 -39q-25 0 -25 16q0 4 3 23.5t8.5 62.5t8.5 114t3 175v803l-213 -2q-18 0 -25.5 1t-7.5 11z" />
<glyph horiz-adv-x="2048" />
<glyph horiz-adv-x="2048" />
<glyph unicode="&#xd;" horiz-adv-x="577" />
<glyph unicode=" "  horiz-adv-x="577" />
<glyph unicode="&#x09;" horiz-adv-x="577" />
<glyph unicode="&#xa0;" horiz-adv-x="577" />
<glyph unicode="!" horiz-adv-x="598" d="M63 1430q0 16 21 16l358 43l-61 -1036l-186 -27l2 848l-125 139q-8 8 -9 17zM131 133q0 63 45 109.5t111 46.5t110.5 -45t44.5 -111t-46 -112t-109 -46t-109.5 47.5t-46.5 110.5z" />
<glyph unicode="&#x22;" horiz-adv-x="614" d="M90 881v555h139v-555h-139zM385 881v555h139v-555h-139z" />
<glyph unicode="#" horiz-adv-x="1574" d="M88 449l53 145h310l92 264h-330l51 146h332l162 454h166l-162 -454h256l164 454h164l-160 -454h301l-51 -146h-303l-93 -264h322l-51 -145h-322l-162 -453h-165l161 453h-258l-162 -453h-165l159 453h-309zM616 594h261l92 264h-260z" />
<glyph unicode="$" horiz-adv-x="1157" d="M76 932q0 70 29.5 133t86 116.5t140.5 93.5t192 64v150l99 41q14 6 22 6q18 0 19 -29l-7 -157h54q78 0 156.5 -14.5t150.5 -43.5l-14 -266q0 -25 -15 -25q-8 0 -16 13l-119 162q-41 16 -90 26t-109 15l-14 -465q203 -53 301 -130t98 -206q0 -150 -110.5 -259.5 t-308.5 -140.5l-3 -122q-2 -70 -29.5 -105t-43.5 -35q-18 0 -19 43v205h-47q-86 0 -184 33t-193 100l-6 96q0 23 6 23q10 0 41 -17.5t83.5 -39t126 -41t171.5 -21.5v414q-449 100 -448 383zM254 987q0 -80 65.5 -127t204.5 -82v432q-131 -23 -200.5 -81t-69.5 -142zM625 145 q121 25 182 77t61 126q0 121 -233 176z" />
<glyph unicode="%" horiz-adv-x="1753" d="M59 942q0 84 36 165t97.5 143.5t141.5 100.5t168 38q68 0 130 -27t109 -73t75 -107t28 -133q0 -90 -37 -171t-97.5 -142.5t-139 -97.5t-162.5 -36q-74 0 -138.5 25.5t-110.5 71.5t-73 108.5t-27 134.5zM227 1028q0 -59 21.5 -111.5t57.5 -91.5t82 -60.5t95 -21.5 q39 0 76 16.5t63.5 45.5t43 67.5t16.5 83.5q0 55 -21.5 107.5t-57.5 92.5t-83 64.5t-98 24.5q-39 0 -75 -16.5t-62.5 -45t-42 -68.5t-15.5 -87zM375 -6q0 8 14 31l871 1364l108 -19q29 -6 29 -20q0 -6 -8 -19l-867 -1276q-55 -80 -123 -80q-25 0 -24 19zM911 317 q0 84 36 165t97.5 143.5t141.5 100.5t168 38q68 0 130 -26.5t109 -73t75 -107.5t28 -133q0 -90 -36 -172t-96.5 -143.5t-139 -97.5t-162.5 -36q-74 0 -137.5 27t-111.5 73t-75 108.5t-27 133.5zM1079 403q0 -59 21.5 -111t57.5 -91t82 -60.5t95 -21.5q39 0 76 16.5t63.5 45 t43 67.5t16.5 84q0 55 -21.5 107.5t-57.5 92t-83 64.5t-98 25q-39 0 -75 -16.5t-62.5 -45.5t-42 -68.5t-15.5 -87.5z" />
<glyph unicode="&#x26;" horiz-adv-x="1394" d="M66 412q0 78 28.5 150.5t83.5 133t135 105.5t183 69q-340 49 -340 256q0 70 43 135.5t122.5 117t195.5 81t261 29.5q66 0 135.5 -6t141.5 -17l-6 -278q0 -27 -15 -27q-8 0 -18 8l-213 170q-35 4 -57.5 4h-36.5q-154 0 -241 -59t-87 -149q0 -199 432 -199q18 0 37.5 1 t40.5 1l-17 -129h-47q-256 0 -385 -97.5t-129 -273.5q0 -68 22.5 -123t63.5 -95t97.5 -61.5t124.5 -21.5q80 0 146.5 29t114.5 72t75.5 93t27.5 93q0 41 -78 41h-225q-29 0 -29 8v6t4 15l33 108h621q41 0 59.5 -2t18.5 -18q0 -14 -13.5 -34t-38 -38t-61.5 -31.5t-84 -13.5 h-23q-27 -115 -81 -206t-130.5 -153.5t-174 -96.5t-208.5 -34q-113 0 -207 35t-161.5 95.5t-104 139.5t-36.5 167z" />
<glyph unicode="'" horiz-adv-x="317" d="M90 881v555h139v-555h-139z" />
<glyph unicode="(" horiz-adv-x="653" d="M94 678q0 199 89 395.5t263 415.5l95 -66q-207 -397 -207 -788q0 -203 55 -393.5t160 -345.5l-94 -66q-180 229 -270.5 437t-90.5 411z" />
<glyph unicode=")" horiz-adv-x="653" d="M76 1423l94 66q180 -229 270 -437t90 -411q0 -199 -89 -395.5t-263 -415.5l-94 66q207 397 207 788q0 203 -55.5 392.5t-159.5 346.5z" />
<glyph unicode="*" d="M94 936l330 131l-315 121l79 176l279 -221l-51 327l192 19l-51 -350l260 211l113 -156l-330 -131l313 -121l-82 -176l-278 219l53 -332l-194 -18l53 350l-260 -207z" />
<glyph unicode="+" horiz-adv-x="1705" d="M254 541v139h528v541h142v-541h528v-139h-528v-541h-142v541h-528z" />
<glyph unicode="," horiz-adv-x="577" d="M104 -211q47 109 70 215.5t23 204.5v43l217 37q2 -14 2 -26.5v-22.5q0 -119 -55.5 -256.5t-165.5 -255.5z" />
<glyph unicode="-" horiz-adv-x="634" d="M37 432q0 8 14 39l49 127l469 -2q47 0 47 -27q0 -10 -8 -31.5t-27.5 -43t-50 -38t-75.5 -18.5l-379 -14q-39 0 -39 8z" />
<glyph unicode="." horiz-adv-x="577" d="M133 133q0 63 45 109.5t111 46.5t111.5 -45t45.5 -111q0 -33 -13 -61.5t-34.5 -50t-50.5 -34t-59 -12.5q-63 0 -109.5 47.5t-46.5 110.5z" />
<glyph unicode="/" horiz-adv-x="569" d="M-49 -162q0 6 8 29l533 1622l108 -23q6 -2 12 -8t6 -14q0 -6 -6 -25l-534 -1515q-16 -41 -35.5 -67.5t-67.5 -26.5q-16 0 -20 7t-4 21z" />
<glyph unicode="0" horiz-adv-x="1157" d="M59 428q0 113 48.5 221.5t146.5 202.5q174 168 391 168q90 0 172 -35t144.5 -95.5t99.5 -143.5t37 -177q0 -244 -183 -422q-86 -86 -187 -129t-208 -43q-98 0 -182 35t-145.5 95.5t-97.5 143.5t-36 179zM264 543q0 -84 30 -157t80 -126t114.5 -84t134.5 -31q57 0 107 24 t88 63.5t59.5 94t21.5 117.5q0 80 -29.5 153t-80 128t-116 88t-136.5 33q-55 0 -104.5 -23.5t-87.5 -63.5t-59.5 -96.5t-21.5 -119.5z" />
<glyph unicode="1" horiz-adv-x="1157" d="M201 803q150 37 258 80t181 79.5t110.5 61.5t46.5 25q10 0 10 -19v-16l-55 -1008l-199 -31v789q-94 -23 -176 -37t-154 -18z" />
<glyph unicode="2" horiz-adv-x="1157" d="M121 100q137 117 245.5 206t182.5 162t112.5 131t38.5 112q0 70 -48 111.5t-138 41.5q-72 0 -158 -24.5t-190 -71.5l-37 98q135 76 258 115t240 39q72 0 130 -21.5t99 -58.5t62.5 -86t21.5 -102q0 -80 -36 -148.5t-107.5 -136.5t-178 -140.5t-247.5 -160.5l575 -14 q29 0 37 -3.5t8 -15.5q0 -16 -13 -38.5t-41 -44t-69 -36t-94 -14.5h-627z" />
<glyph unicode="3" horiz-adv-x="1157" d="M150 715v6l30 274h826q29 0 28 -16q0 -10 -8 -18l-424 -494q186 -8 285.5 -92t99.5 -228q0 -102 -52 -195t-150.5 -166t-240 -117t-317.5 -46l-32 109q131 8 233 44t173 89t107.5 119.5t36.5 138.5q0 236 -389 254l361 481l-344 -14l-193 -137q-12 -8 -18 -9 q-12 0 -12 17z" />
<glyph unicode="4" horiz-adv-x="1157" d="M-16 70q197 248 353.5 432t269 306t178 181.5t75.5 59.5q14 0 14 -29l-38 -879l200 -4q29 0 29 -14q0 -10 -12.5 -29.5t-39 -39t-65.5 -34t-94 -14.5h-25l-16 -334l-176 -55l2 383h-637zM174 141h467l4 514z" />
<glyph unicode="5" horiz-adv-x="1157" d="M106 -268q150 8 264.5 43t192.5 90t119 128t41 157q0 55 -22.5 103t-65.5 84t-103.5 56.5t-136.5 20.5q-104 0 -209 -31v612h785q37 0 37 -18q0 -6 -12.5 -35t-34.5 -51q-29 -27 -79.5 -36t-127.5 -11l-228 -4q-35 0 -59.5 -3t-38.5 -11.5t-21.5 -24t-9.5 -41.5l-14 -234 q72 14 149 15q205 0 318 -100.5t113 -268.5q0 -117 -54.5 -217t-160 -174t-259 -116t-352.5 -44z" />
<glyph unicode="6" horiz-adv-x="1157" d="M72 440q0 250 179 483.5t540 465.5l73 -82q-205 -147 -328 -293t-184 -320q102 92 206 137.5t196 45.5q70 0 130 -24t104 -67t69.5 -102t25.5 -131q0 -193 -170 -375q-190 -203 -428 -203q-90 0 -165.5 35t-131 96.5t-86 146.5t-30.5 187zM313 438q0 -72 18.5 -131 t50.5 -101t75 -65.5t92 -23.5q57 0 113.5 28.5t100.5 78.5t71.5 118t27.5 143q0 92 -59.5 152.5t-149.5 60.5q-137 0 -323 -131q-16 -72 -17 -129z" />
<glyph unicode="7" horiz-adv-x="1157" d="M145 690l13 305h921l-446 -1190q-35 -92 -89.5 -138t-119.5 -46q-43 0 -43 23q0 8 3 16t7 18l397 1176l-444 -14l-172 -162q-8 -8 -16 -8q-10 0 -11 20z" />
<glyph unicode="8" horiz-adv-x="1157" d="M94 305q0 119 77.5 217.5t231.5 202.5q-106 76 -159.5 144.5t-53.5 152.5q0 70 37 136.5t102.5 117.5t154.5 82t192 31q72 0 134 -23t108.5 -60.5t73 -88t26.5 -107.5q0 -168 -258 -348q135 -92 203.5 -169t68.5 -169q0 -190 -203 -330q-86 -59 -177 -89t-177 -30 q-84 0 -153.5 27t-119.5 72t-79 105.5t-29 125.5zM317 373q0 -53 19.5 -98.5t52.5 -78t78 -51t98 -18.5t99.5 18.5t81 49t54 69.5t19.5 78q0 88 -80.5 162t-242.5 164q-90 -59 -134.5 -135t-44.5 -160zM408 1092q0 -70 67.5 -132.5t202.5 -146.5q61 47 94 106.5t33 112.5 q0 43 -16.5 83t-45 69.5t-67.5 47t-84 17.5q-78 0 -131 -46t-53 -111z" />
<glyph unicode="9" horiz-adv-x="1157" d="M74 526q0 96 45 185.5t135 165.5q78 66 179.5 104.5t197.5 38.5t177 -34t139.5 -94.5t90 -143t31.5 -179.5q0 -129 -55.5 -257t-165 -249.5t-272 -233.5t-377.5 -208l-54 78q476 270 605 549q-133 -74 -277 -74q-90 0 -162.5 26.5t-126 72.5t-82 111t-28.5 142zM291 606 q0 -63 22.5 -117.5t63.5 -93.5t99.5 -61.5t129.5 -22.5q85 0 189 47q14 35 25 77t11 95q0 78 -21.5 141.5t-58 107.5t-87 68.5t-105.5 24.5t-104 -20.5t-86 -56t-57.5 -84.5t-20.5 -105z" />
<glyph unicode=":" horiz-adv-x="577" d="M133 133q0 63 45 109.5t111 46.5t111.5 -45t45.5 -111q0 -33 -13 -61.5t-34.5 -50t-50.5 -34t-59 -12.5q-63 0 -109.5 47.5t-46.5 110.5zM133 862q0 63 45 110.5t111 47.5t111.5 -46t45.5 -112t-47 -110.5t-110 -44.5t-109.5 46t-46.5 109z" />
<glyph unicode=";" horiz-adv-x="577" d="M104 -211q47 109 70 215.5t23 204.5v43l217 37q2 -14 2 -26.5v-22.5q0 -119 -55.5 -256.5t-165.5 -255.5zM133 862q0 63 45 110.5t111 47.5t111.5 -46t45.5 -112t-47 -110.5t-110 -44.5t-109.5 46t-46.5 109z" />
<glyph unicode="&#x3c;" horiz-adv-x="1705" d="M264 547v129l1178 483v-153l-969 -396l969 -393v-154z" />
<glyph unicode="=" horiz-adv-x="1705" d="M254 342v139h1198v-139h-1198zM254 739v140h1198v-140h-1198z" />
<glyph unicode="&#x3e;" horiz-adv-x="1705" d="M264 63v154l971 393l-971 396v153l1178 -483v-129z" />
<glyph unicode="?" horiz-adv-x="1042" d="M6 1272q291 217 549 217q94 0 171 -28.5t132 -76t85 -110t30 -131.5q0 -66 -22.5 -120t-60.5 -105.5t-90 -102.5t-114 -110q-57 -57 -97 -112.5t-52 -139.5l-131 -19v21q0 74 25.5 140.5t76.5 135.5q43 59 82 109.5t68.5 94.5t46 86t16.5 85q0 39 -17.5 76t-51.5 66.5 t-82 47t-109 17.5q-86 0 -181.5 -39t-211.5 -111zM293 133q0 63 45 109.5t111 46.5t111.5 -45t45.5 -111q0 -33 -13 -61.5t-34.5 -50t-50.5 -34t-59 -12.5q-63 0 -109.5 47.5t-46.5 110.5z" />
<glyph unicode="@" horiz-adv-x="2048" d="M106 522q0 166 51.5 312.5t151.5 269.5q145 178 349 270t458 92q172 0 316.5 -47t246.5 -125q129 -100 197 -230t68 -284q0 -176 -62.5 -315t-185.5 -236q-70 -55 -151 -83.5t-165 -28.5q-201 0 -200 157v19q-109 -174 -301 -174q-154 0 -234 85t-80 247q0 119 37 220 t101.5 175t151.5 116t187 42q170 0 242 -150l57 115h132l-146 -576q-8 -33 -8 -59q0 -94 100 -94q47 0 101.5 25.5t107.5 76.5q78 74 124 183.5t46 236.5t-49 234.5t-139 184t-217 119.5t-285 43q-264 0 -457 -114q-193 -115 -297 -299.5t-104 -409.5q0 -178 61.5 -308 t192.5 -230q98 -74 232 -117t292 -43q170 0 329 49t292 141l55 -82q-297 -223 -664 -223q-383 0 -628 187q-305 236 -306 628zM725 446q0 -106 48 -162.5t138 -56.5q96 0 173 67.5t106 180.5l59 236q-16 90 -68.5 137t-129.5 47q-70 0 -129.5 -35t-103.5 -95t-68.5 -142 t-24.5 -177z" />
<glyph unicode="A" horiz-adv-x="1374" d="M-119 -45q0 6 10 27l469 909q86 166 140.5 286.5t54.5 206.5v21l250 84l549 -1464l-183 -76l-208 487l-381 -4q-74 0 -129.5 -3t-98.5 -18.5t-77.5 -48t-67.5 -96.5l-117 -221q-55 -106 -166 -106q-23 0 -34 6t-11 10zM385 590l520 -15l-233 564z" />
<glyph unicode="B" horiz-adv-x="1280" d="M43 1440q0 12 7 15t26 3l143 6h230q160 0 278.5 -7t198.5 -40q104 -41 160.5 -111.5t56.5 -146.5q0 -115 -91 -203t-259 -125q199 -4 305 -86.5t106 -224.5q0 -100 -59.5 -195.5t-170 -170t-268 -119.5t-354.5 -45q-43 0 -90 3t-94 7l8 1280l-127 147q-6 6 -6 13z M395 307q0 -8 1 -18t1 -25q0 -59 21.5 -83.5t93.5 -24.5q86 0 167 25.5t143.5 68.5t99 99.5t36.5 117.5q0 117 -98 185.5t-287 68.5h-157zM418 844h49q223 0 332.5 64.5t109.5 183.5q0 106 -114.5 172.5t-337.5 66.5h-19z" />
<glyph unicode="C" horiz-adv-x="1431" d="M100 686q0 354 299 598q121 98 273.5 151.5t312.5 53.5q182 0 307 -59l-14 -281q0 -18 -10 -19q-8 0 -15 7l-190 172q-29 10 -61.5 14t-71.5 4q-121 0 -223.5 -47t-179 -129t-119.5 -193.5t-43 -238.5q0 -123 39.5 -228.5t111.5 -182.5t171 -120t216 -43q86 0 156.5 19.5 t122 42t83 42t38.5 19.5q10 0 10 -12q0 -6 -8.5 -45t-24.5 -111q-94 -59 -212 -92t-251 -33q-160 0 -303 67t-252 194q-78 92 -120 207.5t-42 242.5z" />
<glyph unicode="D" horiz-adv-x="1456" d="M27 1450q0 12 14 12l309 13q31 2 68 2h84q444 0 668.5 -157t224.5 -452q0 -201 -106.5 -385t-305.5 -317q-86 -59 -173 -92t-178 -49.5t-185.5 -20.5t-196.5 -4h-72l-6 1274l-137 160q-8 8 -8 16zM403 285q0 -113 154 -113q78 0 173 35t179 100q111 86 172.5 213 t61.5 281q0 119 -46 216t-132 165.5t-208 106.5t-276 38q-10 0 -18 1t-17 1l-43 -991v-53z" />
<glyph unicode="E" horiz-adv-x="1251" d="M47 1452q0 12 21 12h1081q29 0 29 -12q0 -4 -4 -12l-50 -103l-680 -34l-16 -426l655 -5q20 0 21 -10q0 -2 -4 -10l-76 -102l-602 -54l-14 -297q0 -14 -1 -30.5t-1 -34.5q0 -86 48 -118t160 -32l480 2q20 0 29.5 -3t9.5 -17t-12.5 -34.5t-36 -41t-57.5 -36t-77 -19.5 q-55 -4 -245.5 -10.5t-520.5 -24.5l-6 1282l-125 154q-6 8 -6 16z" />
<glyph unicode="F" horiz-adv-x="1138" d="M33 1452q0 12 22 12h1055q18 0 24.5 -1t6.5 -11q0 -6 -2 -10l-39 -109l-656 -43l-18 -434l590 -6q25 0 24 -10q0 -8 -4 -15l-51 -100l-418 -45q-51 -6 -80.5 -16.5t-45 -28t-20.5 -44t-7 -63.5l-13 -335q-2 -47 -8 -89.5t-41 -83.5q-35 -43 -79 -67.5t-66 -24.5 q-23 0 -23 25l-8 1317l-133 160q-10 14 -10 22z" />
<glyph unicode="G" horiz-adv-x="1507" d="M66 668q0 156 54 294t163 250q264 276 684 277q92 0 171 -19.5t142 -54.5l-23 -268q-4 -27 -16 -27q-8 0 -16 8l-158 158q-78 37 -182 37q-129 0 -232.5 -42t-177.5 -118t-113.5 -182.5t-39.5 -237.5q0 -129 37.5 -239.5t104 -190.5t157 -126t194.5 -46q80 0 147.5 27 t115.5 70t76 96t28 104q0 49 -28 70.5t-93 26.5l-311 14q-29 0 -29 10q0 2 6 19l49 106l666 10q-12 -168 -66.5 -301t-143.5 -226t-210 -142.5t-262 -49.5q-147 0 -274.5 53.5t-220.5 145.5t-146 219t-53 275z" />
<glyph unicode="H" horiz-adv-x="1517" d="M37 1427q0 10 24 15l396 35l-29 -654l670 -12l-4 635l278 18l-55 -1464q-66 -10 -118 -17.5t-93 -7.5l-6 709l-408 -22q-84 -4 -137 -11.5t-83 -31t-42 -67.5t-16 -124l-17 -303q-2 -41 -3 -66.5t-11 -35.5t-34.5 -24.5t-53.5 -28t-54.5 -22.5t-37.5 -9q-18 0 -19 32 l-6 1282l-129 154q-12 14 -12 20z" />
<glyph unicode="I" horiz-adv-x="602" d="M37 1427q0 10 24 15l396 35l-64 -1477l-209 -25l-6 1278l-129 154q-12 14 -12 20z" />
<glyph unicode="J" horiz-adv-x="598" d="M35 -186q0 14 28.5 32.5t57.5 65.5q33 53 47 154.5t14 250.5v31l-4 905l-129 154q-12 14 -12 20q0 10 24 15l390 35l-41 -1121q-4 -135 -12.5 -230t-28.5 -155q-35 -96 -93.5 -145t-132.5 -49q-53 0 -80.5 13t-27.5 24z" />
<glyph unicode="K" horiz-adv-x="1331" d="M37 1427q0 10 24 15l390 35l-33 -893l729 905l170 -96q16 -8 16 -17q0 -2 -16 -22l-559 -604l520 -660q35 -45 56.5 -62.5t21.5 -27.5q0 -4 -9.5 -13.5t-25.5 -18.5t-40 -17t-52 -8q-53 0 -105.5 34.5t-115.5 106.5l-424 475l-174 -190l-15 -369l-211 -25l-6 1278 l-129 154q-12 14 -12 20z" />
<glyph unicode="L" horiz-adv-x="1013" d="M37 1427q0 10 24 15l396 35l-45 -1162q0 -4 -1 -21.5t-1 -45.5q0 -53 43 -64.5t110 -13.5l436 -4q45 0 45 -23q0 -18 -11 -40.5t-36.5 -43t-67.5 -34t-104 -15.5l-641 -20l-6 1263l-129 154q-12 14 -12 20z" />
<glyph unicode="M" horiz-adv-x="1820" d="M92 1442q0 8 25 12l418 35l380 -1149l404 979q12 31 20.5 61.5t12.5 65.5l293 43q8 2 13 2h9q8 0 8 -21l25 -1445l-201 -50l-61 1211l-529 -1176l-61 -20l-436 1196l-150 -1024q-6 -45 -14 -86t-23.5 -72t-40 -48t-67.5 -17q-14 0 -18.5 2t-4.5 12t2 14t2 8l138 1297 l-132 149q-12 14 -12 21z" />
<glyph unicode="N" horiz-adv-x="1507" d="M37 1427q0 10 24 15l396 35l751 -1182l-6 1151l168 29q6 2 11 2h10q8 0 8 -17l-56 -1417l-143 -49q-12 -4 -16 -4h-6q-6 0 -19 16l-792 1149l-41 -1034q-2 -47 -15.5 -82t-32 -57.5t-40 -32.5t-35.5 -10q-18 0 -22.5 10t-4.5 39q0 10 1 18t1 14v1233l-129 154 q-12 14 -12 20z" />
<glyph unicode="O" horiz-adv-x="1564" d="M66 610q0 295 178 529l-90 84q-10 10 -11 14q0 20 160 111q125 70 257 105.5t255 35.5q150 0 276 -51.5t216 -141.5t140 -214t50 -269q0 -141 -51 -281.5t-152 -263.5q-240 -293 -594 -293q-127 0 -242.5 46.5t-202.5 130.5t-138 200.5t-51 257.5zM272 750 q0 -117 43 -220.5t116 -179.5t170 -120t206 -44q102 0 191 40t156 110t104.5 163t37.5 199q0 117 -42 219.5t-118.5 178t-183 120t-235.5 44.5q-132 0 -238 -33q-102 -102 -154.5 -222t-52.5 -255z" />
<glyph unicode="P" horiz-adv-x="1214" d="M33 1434q0 16 26 16l308 10q72 4 125 4h83q143 0 253 -29.5t184.5 -82t112.5 -126t38 -159.5q0 -203 -191.5 -349.5t-561.5 -205.5l-13 -309q-2 -41 -4 -78t-24 -72q-16 -27 -40 -47t-48.5 -35.5t-45 -23.5t-30.5 -8q-14 0 -17.5 6t-3.5 18v8l-8 1293l-135 153 q-8 8 -8 17zM416 668q115 6 205 38.5t153.5 83t96 115t32.5 137.5q0 135 -106.5 208t-323.5 73h-33z" />
<glyph unicode="Q" horiz-adv-x="1564" d="M66 610q0 295 178 529l-90 84q-10 10 -11 14q0 20 160 111q125 70 257 105.5t255 35.5q150 0 276 -51.5t216 -142.5t140 -215t50 -271q0 -154 -58.5 -296t-176.5 -290q51 -61 94 -100t73.5 -62.5t48 -35t17.5 -15.5q0 -16 -27.5 -32.5t-72.5 -16.5q-47 0 -111.5 39 t-153.5 111q-193 -135 -430 -136q-127 0 -242.5 46.5t-202.5 130.5t-138 200.5t-51 257.5zM272 750q0 -117 43 -220.5t116 -179.5t169 -120t203 -44q96 0 205 43q-53 49 -109.5 107.5t-116.5 130.5l88 147q8 16 17 17q8 0 22 -17l246 -276q141 166 141 360q0 117 -42 219.5 t-118.5 178t-183 120t-235.5 44.5q-132 0 -238 -33q-102 -102 -154.5 -222t-52.5 -255z" />
<glyph unicode="R" horiz-adv-x="1318" d="M23 1434q0 12 24 12l244 12q125 6 231 6q328 0 492 -104.5t164 -282.5q0 -70 -29 -133t-86 -126.5t-144.5 -129t-201.5 -135.5q150 -145 268.5 -244.5t199.5 -162t124 -93t43 -37.5q0 -8 -10.5 -20t-31 -24.5t-49 -20.5t-65.5 -8q-51 0 -119.5 38.5t-163 110.5 t-216.5 171t-277 220l-8 -4l-11 -473l-202 -31l-29 1285l-139 157q-8 12 -8 17zM416 561q516 217 516 469q0 129 -107.5 207t-312.5 78h-78z" />
<glyph unicode="S" horiz-adv-x="1214" d="M70 238v18q0 10 14 10q8 0 40 -16.5t87 -36.5t134 -36.5t183 -16.5q90 0 160 17.5t117 46t71.5 66.5t24.5 79q0 43 -23.5 72.5t-69.5 52t-111.5 41t-147.5 38.5q-109 27 -194 58t-144 76t-91 107.5t-32 152.5q0 104 49 198.5t139.5 166t215 114.5t276.5 43 q86 0 167 -14.5t157 -42.5l-23 -295q-4 -27 -16 -27q-8 0 -15 6l-157 139q-98 33 -219 33q-90 0 -163 -19.5t-125 -51t-80 -74.5t-28 -90q0 -90 90 -139.5t273 -92.5q236 -55 355.5 -138t119.5 -234q0 -90 -49 -175.5t-132 -152t-194 -106.5t-235 -40q-104 0 -207 30 t-201 89z" />
<glyph unicode="T" horiz-adv-x="1185" d="M51 1260q4 47 7 98t8 106l1069 -6h8q10 0 15 -3t5 -17q0 -94 -113.5 -125t-336.5 -35l-35 -1270l-180 -31q-10 -2 -23 -2q-14 0 -14 23v16l-17 1252z" />
<glyph unicode="U" horiz-adv-x="1449" d="M37 1427q0 10 24 15l396 35l-37 -947v-36q0 -186 76.5 -275.5t246.5 -89.5q182 0 261 118t79 357v21l-12 835l205 21h10q18 0 19 -21l-17 -612q-4 -176 -16 -320.5t-72 -267.5q-66 -139 -194.5 -212t-315.5 -73q-297 0 -420 164q-63 84 -76.5 192.5t-13.5 250.5l-2 671 l-129 154q-12 14 -12 20z" />
<glyph unicode="V" horiz-adv-x="1374" d="M-37 1434q0 12 23 16l331 29l355 -1182l395 946q109 260 272 260q29 0 29 -20q0 -2 -4 -15l-659 -1466l-140 -25h-6q-14 0 -14 11q0 8 1 16t1 14q0 37 -29 117l-407 1133l-140 147q-8 8 -8 19z" />
<glyph unicode="W" horiz-adv-x="1982" d="M-49 1442q0 12 26 14l326 21l289 -1162l360 1086l211 31l211 -1117l355 973q18 51 47.5 89t63.5 62.5t68 37t58 12.5q12 0 15.5 -3t3.5 -13q0 -12 -3 -17l-573 -1456l-152 -23q-4 0 -7 -1t-7 -1q-12 0 -17 8.5t-8.5 28t-6.5 53t-13 87.5l-194 1001l-383 -1151l-144 -25 q-4 0 -8 -1t-8 -1q-6 0 -8 21.5t-8.5 64.5t-19.5 109t-40 152l-289 942l-135 157q-10 14 -10 21z" />
<glyph unicode="X" horiz-adv-x="1298" d="M-49 -31q0 14 20.5 30.5t40.5 45.5l492 680l-338 549l-143 139q-10 10 -11 19q0 12 21 16l321 29l305 -553l373 528l213 12h6q23 0 23 -16q0 -10 -12 -25l-506 -669l405 -742l-166 -73l-391 628l-381 -504q-93 -124 -196 -124h-2q-35 0 -54.5 11t-19.5 19z" />
<glyph unicode="Y" horiz-adv-x="1318" d="M-23 1440q0 10 23 12l326 25l374 -942l383 915l203 12h12q14 0 15 -8q0 -8 -4 -14l-682 -1395q-57 -117 -116.5 -180.5t-156.5 -63.5q-49 0 -49 23q0 10 14.5 25.5t30.5 46.5l223 428l-442 944l-143 151q-6 6 -8.5 12.5t-2.5 8.5z" />
<glyph unicode="Z" horiz-adv-x="1251" d="M-2 16q0 8 12 25l879 1272l-576 -17l-229 -145q-14 -8 -23 -8q-14 0 -14 24l16 297h1160q22 0 22 -11q0 -3 -1 -8t-5 -11l-782 -1110q-20 -29 -33.5 -48.5t-13.5 -37.5q0 -31 28.5 -43.5t87.5 -12.5l482 -6h61q55 0 88 1t43 1q25 0 25 -12q0 -16 -22.5 -54t-57.5 -59 q-29 -16 -102.5 -22t-192.5 -11l-823 -20q-29 0 -29 16z" />
<glyph unicode="[" horiz-adv-x="653" d="M176 1464h432q16 0 20.5 -5t4.5 -21q0 -37 -6 -57.5t-16.5 -30t-24 -11.5t-25.5 -2h-4l-156 -6l-30 -1370l227 -4q37 0 37 -31q0 -45 -13.5 -70.5t-41.5 -25.5h-396z" />
<glyph unicode="\" horiz-adv-x="569" d="M-49 1444q0 8 6 14t12 8l109 23l532 -1622q8 -23 8 -29q0 -14 -4 -21t-20 -7q-47 0 -66.5 26.5t-35.5 67.5l-535 1515q-6 18 -6 25z" />
<glyph unicode="]" horiz-adv-x="653" d="M16 -143q0 37 7.5 57t18.5 29.5t25.5 11.5t26.5 2l187 4l-31 1370l-199 6q-35 0 -35 31q0 45 13.5 70.5t42.5 25.5h401l-8 -1634h-422q-16 0 -21.5 5t-5.5 22z" />
<glyph unicode="^" horiz-adv-x="2048" d="M420 901l510 557h186l510 -557h-180l-422 420l-424 -420h-180z" />
<glyph unicode="_" d="M0 -340h1024v-143h-1024v143z" />
<glyph unicode="`" d="M233 1487l222 -17q72 -176 204 -329l-129 -19q-221 178 -297 365z" />
<glyph unicode="a" horiz-adv-x="1232" d="M37 324q0 137 68.5 270t199.5 244q106 90 226 136t239 46q61 0 162 -23l10 76q2 18 12 19q8 0 15 -5l164 -81q-23 -289 -31 -481.5t-8 -291.5q0 -117 8 -171t8 -62q0 -25 -39 -25q-72 0 -126 69t-54 198q0 37 5 85t13 109q-121 -229 -256 -345t-276 -116q-74 0 -136.5 26 t-107.5 72t-70.5 110.5t-25.5 140.5zM225 430q0 -109 60.5 -171t163.5 -62q160 0 278 152.5t184 455.5q-55 14 -107 22.5t-99 8.5q-106 0 -194.5 -33t-152 -88.5t-98.5 -129t-35 -155.5z" />
<glyph unicode="b" horiz-adv-x="1228" d="M-12 1499q0 12 18 12l400 29l-48 -790q254 270 512 270q70 0 129.5 -24.5t102.5 -71.5t67.5 -115t24.5 -152q0 -113 -55.5 -230.5t-163.5 -225.5q-111 -111 -238 -168.5t-237 -57.5q-193 0 -283 112t-90 341v23l20 911l-151 123q-8 6 -8 14zM350 459q0 -317 232 -318 q78 0 151.5 37t130 98.5t91 141.5t34.5 168q0 106 -65.5 172.5t-165.5 66.5q-199 0 -406 -256q-2 -41 -2 -67.5v-42.5z" />
<glyph unicode="c" horiz-adv-x="1071" d="M51 428q0 117 55.5 224.5t154.5 188.5t238.5 130t309.5 49q96 0 182 -29l-18 -239q-2 -23 -12 -23t-19 8l-178 135h-14q-8 0 -19.5 1t-25.5 1q-96 0 -174 -27.5t-133.5 -78.5t-86 -120.5t-30.5 -151.5q0 -78 27.5 -142.5t78.5 -111.5t124 -73t163 -26q156 0 340 70 l-29 -123q-109 -59 -215 -87t-199 -28q-117 0 -213 34t-164.5 94.5t-105.5 143.5t-37 181z" />
<glyph unicode="d" horiz-adv-x="1232" d="M37 324q0 137 68.5 270t199.5 244q106 90 226 136t239 46q53 0 133 -19l-6 359l-154 113q-8 6 -8 12q0 14 15 14l387 41l-33 -1112v-158q0 -66 2 -123t10 -104l7 -31.5t3 -21.5q0 -14 -20 -15q-106 0 -155.5 84t-49.5 250v54.5t4 74.5q-102 -225 -245.5 -344t-282.5 -119 q-74 0 -136.5 26t-107.5 72t-70.5 110.5t-25.5 140.5zM225 430q0 -109 61.5 -171t162.5 -62q78 0 149.5 39.5t132 116.5t104 191t68.5 259q-53 16 -103 24.5t-98 8.5q-104 0 -192 -33t-150.5 -88.5t-98.5 -129t-36 -155.5z" />
<glyph unicode="e" horiz-adv-x="1138" d="M53 436q0 254 250 436q98 72 213 110t232 38q150 0 235.5 -66.5t85.5 -171.5q0 -166 -193.5 -273.5t-576.5 -125.5q39 -106 136 -164.5t247 -58.5q76 0 137.5 12t107.5 25.5t74.5 26t36.5 12.5q16 0 17 -21q0 -2 -1 -2t-1 -2l-29 -102q-111 -66 -226.5 -100t-228.5 -34 q-115 0 -210 36t-162.5 97.5t-105.5 145.5t-38 182zM281 504q268 35 399 100.5t131 173.5q0 45 -36 74t-103 29q-76 0 -146.5 -30t-125 -81t-87 -116.5t-32.5 -137.5v-12z" />
<glyph unicode="f" horiz-adv-x="772" d="M0 862q0 12 2 19l35 114h209v52q0 262 107.5 389t338.5 127q41 0 76 -5.5t66 -13.5l-46 -123q-37 10 -69 11q-125 0 -178.5 -100.5t-53.5 -309.5v-27h306q29 0 28 -22q0 -12 -10 -37t-27 -41q-20 -20 -43.5 -21.5t-60.5 -5.5q-49 -4 -86 -5t-61.5 -12t-38 -34.5 t-15.5 -71.5l-18 -493q-6 -143 -13.5 -254t-29 -186.5t-61.5 -114.5t-109 -39q-25 0 -25 16q0 4 3 23.5t8.5 62.5t8.5 114t3 175v803l-213 -2q-18 0 -25.5 1t-7.5 11z" />
<glyph unicode="g" horiz-adv-x="1232" d="M37 324q0 137 68.5 270t199.5 244q106 90 226 136t239 46q61 0 162 -23l10 76q2 18 8 19q8 0 19 -5l151 -59q-8 -182 -11 -339t-7 -289t-13.5 -240.5t-31.5 -192.5q-53 -207 -187.5 -314.5t-318.5 -107.5q-143 0 -256 68l-21 125v12q0 12 11 12q4 0 21.5 -9t45 -20.5 t66.5 -20.5t88 -9q391 0 391 698v11q-119 -219 -250 -328t-270 -109q-74 0 -136.5 26t-107.5 72t-70.5 110.5t-25.5 140.5zM225 430q0 -109 60.5 -171t163.5 -62q160 0 278 152.5t184 455.5q-55 14 -107 22.5t-99 8.5q-106 0 -194.5 -33t-152 -88.5t-98.5 -129t-35 -155.5z " />
<glyph unicode="h" horiz-adv-x="1208" d="M-29 1499q0 14 19 14l383 27l-27 -909q223 389 481 389q123 0 193 -90t70 -264q0 -137 -15.5 -279.5t-15.5 -290.5q0 -66 6 -100.5t6 -40.5q0 -16 -22 -16q-106 0 -147.5 88t-41.5 254v229q0 143 -24.5 219t-116.5 76q-68 0 -136.5 -54.5t-124 -158t-90 -253 t-36.5 -339.5l-197 -25l-12 1395l-141 113q-10 10 -11 16z" />
<glyph unicode="i" horiz-adv-x="530" d="M2 973q0 10 23 14l395 33l-51 -1020l-201 -25l-4 848l-152 131q-10 10 -10 19zM121 1399q0 66 47 115t117 49q68 0 116 -48.5t48 -115.5q0 -35 -13.5 -64.5t-36 -52t-52.5 -35t-62 -12.5q-33 0 -62.5 13.5t-52.5 36t-36 52t-13 62.5z" />
<glyph unicode="j" horiz-adv-x="530" d="M2 973q0 10 23 14l395 33l-51 -1065q-10 -209 -81 -309.5t-179 -100.5q-39 0 -39 19q0 6 16 30.5t35.5 80t36 145.5t16.5 223v20l-10 760l-152 131q-10 10 -10 19zM121 1399q0 66 47 115t117 49q68 0 116 -48.5t48 -115.5q0 -35 -13.5 -64.5t-36 -52t-52.5 -35t-62 -12.5 q-33 0 -62.5 13.5t-52.5 36t-36 52t-13 62.5z" />
<glyph unicode="k" horiz-adv-x="1099" d="M-29 1499q0 14 19 14l383 27l-35 -1024l582 504l137 -133q8 -8 8 -17q0 -10 -14 -18l-410 -289l446 -518q23 -25 40.5 -36t17.5 -21q0 -14 -33 -31.5t-76 -17.5q-78 0 -123 45l-460 448l-119 -88l-12 -344l-187 -25l-12 1395l-141 113q-10 10 -11 16z" />
<glyph unicode="l" horiz-adv-x="468" d="M-29 1499q0 14 19 14l383 27l-51 -1540l-187 -25l-12 1395l-141 113q-10 10 -11 16z" />
<glyph unicode="m" horiz-adv-x="1961" d="M2 973q0 10 23 14l395 33l-37 -389q111 195 232.5 292t234.5 97q123 0 192.5 -96.5t69.5 -284.5q102 193 219 287t225 94q283 0 283 -383q0 -164 -15.5 -311.5t-15.5 -278.5q0 -43 9.5 -63.5t9.5 -26.5q0 -18 -23 -18t-61.5 16t-73.5 49q-37 37 -48 94.5t-11 143.5 q0 41 1 100t1 137q0 166 -28 245t-111 79q-55 0 -121 -50.5t-122 -148.5t-95 -241.5t-39 -329.5v-33l-201 -25v31q0 37 1 130t1 243q0 102 -2 181t-16.5 133.5t-43 82t-81.5 27.5q-59 0 -127 -51.5t-125.5 -149.5t-95 -241.5t-37.5 -327.5v-33l-201 -25l-4 848l-152 131 q-10 10 -10 19z" />
<glyph unicode="n" horiz-adv-x="1269" d="M2 973q0 10 23 14l395 33l-37 -389q223 389 481 389q133 0 208 -95.5t75 -287.5q0 -162 -15.5 -310.5t-15.5 -279.5q0 -43 9.5 -63.5t9.5 -26.5q0 -18 -23 -18t-61.5 15t-73.5 50q-39 37 -49 95.5t-10 144.5q0 43 1 99t1 128q0 82 -5.5 144.5t-21.5 104.5t-47 63.5 t-82 21.5q-66 0 -135.5 -52.5t-128 -151.5t-95 -243.5t-36.5 -330.5v-27l-201 -25l-4 848l-152 131q-10 10 -10 19z" />
<glyph unicode="o" horiz-adv-x="1193" d="M51 414q0 135 67.5 243.5t207.5 206.5l-47 56q-10 14 -11 18q0 4 25.5 17.5t72 27.5t110 25.5t140.5 11.5q117 0 213.5 -35t166 -95.5t107.5 -141t38 -175.5q0 -127 -54.5 -233.5t-164.5 -204.5q-94 -82 -197.5 -121t-226.5 -39q-98 0 -181.5 33t-141.5 91.5t-91 139 t-33 175.5zM285 465q0 -74 23.5 -136.5t64.5 -108.5t96 -72.5t117 -26.5q66 0 124 28.5t102 79t69.5 121t25.5 154.5q0 82 -27.5 148.5t-77.5 114.5t-121 74.5t-157 26.5h-10q-111 -76 -170 -181t-59 -222z" />
<glyph unicode="p" horiz-adv-x="1236" d="M8 971q0 16 19 16l393 33l-29 -291q96 143 215 217t250 74q76 0 139.5 -26.5t109.5 -75t71.5 -115t25.5 -148.5q0 -236 -209 -450q-111 -113 -234.5 -171.5t-234.5 -58.5q-41 0 -78.5 5.5t-76.5 15.5l-25 -428l-174 -37l-6 1294l-150 133q-6 6 -6 13zM381 176 q86 -41 172 -41q92 0 174 34t142.5 92t96 136t35.5 164q0 57 -18 105.5t-51 83t-77 53t-95 18.5q-178 0 -273.5 -160.5t-105.5 -484.5z" />
<glyph unicode="q" horiz-adv-x="1232" d="M37 324q0 137 68.5 270t199.5 244q106 90 226 136t239 46q61 0 162 -23l10 76q2 18 12 19q8 0 15 -5l164 -81l-70 -1438l-172 -37l2 872q-238 -428 -516 -428q-74 0 -136.5 26t-107.5 72t-70.5 110.5t-25.5 140.5zM225 430q0 -109 60.5 -171t163.5 -62q160 0 278 152.5 t184 455.5q-55 14 -107 22.5t-99 8.5q-106 0 -194.5 -33t-152 -88.5t-98.5 -129t-35 -155.5z" />
<glyph unicode="r" horiz-adv-x="937" d="M2 973q0 10 23 14l385 33l-37 -389q104 197 222 293t259 96h15.5t29.5 -2l-31 -242q-16 2 -33.5 2h-33.5q-215 0 -321.5 -191.5t-125.5 -586.5l-186 -25l-4 848l-152 131q-10 10 -10 19z" />
<glyph unicode="s" horiz-adv-x="1052" d="M59 158q150 -49 312 -49q84 0 147.5 14t105.5 35.5t62.5 48t20.5 53.5q0 49 -63.5 77t-186.5 62q-96 27 -169 51.5t-121 55.5t-72.5 70.5t-24.5 95.5q0 66 42 128t116.5 111.5t178 79t228.5 29.5q78 0 151.5 -10.5t143.5 -28.5l-17 -217q-2 -29 -16 -29q-10 0 -18 8 l-156 134q-35 8 -66.5 10t-60.5 2q-63 0 -115.5 -12.5t-89.5 -33t-57.5 -47t-20.5 -57.5q0 -33 20.5 -53t59.5 -35.5t97.5 -30t136.5 -32.5q166 -43 251 -99.5t85 -164.5q0 -70 -39 -133.5t-111 -110.5t-171 -76t-220 -29q-106 0 -194.5 18.5t-151.5 51.5z" />
<glyph unicode="t" horiz-adv-x="815" d="M-4 846l37 149h135l2 252l252 72l-12 -324h360q20 0 21 -12q0 -129 -306 -129h-82l-20 -440v-33q0 -244 170 -244q33 0 61.5 7.5t50 16.5t36 17t20.5 8q10 0 10 -12q0 -6 -2 -34.5t-8 -78.5q-49 -41 -112.5 -63.5t-129.5 -22.5q-143 0 -224 90.5t-83 270.5l-6 518z" />
<glyph unicode="u" horiz-adv-x="1269" d="M-4 969q0 10 22 14l396 37q-16 -248 -22 -395.5t-7 -192.5q0 -123 24.5 -183.5t94.5 -60.5q53 0 113.5 51.5t122 153t120 252t107.5 350.5l196 25q-16 -324 -21 -522.5t-5 -272.5q0 -68 2 -111.5t5 -70.5t6 -39t3 -14q0 -14 -18 -15q-23 0 -61 13.5t-66 36.5 q-51 41 -62.5 96t-11.5 135v100q0 29 6 170q-102 -274 -236.5 -412.5t-277.5 -138.5q-86 0 -147.5 47.5t-85.5 137.5q-20 72 -24.5 185.5t-4.5 272.5v89q0 10 1 36.5t1 69.5l-158 137q-12 8 -12 19z" />
<glyph unicode="v" horiz-adv-x="1028" d="M-66 983q0 10 23 14l309 23l273 -795l241 582q41 100 92.5 156.5t141.5 56.5q29 0 44 -7t15 -14q0 -6 -6 -14l-485 -985l-181 -25q-10 53 -23 99.5t-30 87.5l-254 647l-147 152q-12 12 -13 22z" />
<glyph unicode="w" horiz-adv-x="1583" d="M-59 987q0 16 24 17l311 16l216 -795l278 770l109 25l231 -795l236 588q82 207 213 207q23 0 37 -6t14 -13l-4 -12l-447 -989l-166 -25q-14 57 -24.5 95.5t-16.5 56.5l-157 483l-273 -610l-160 -25q-18 92 -43 166l-233 707l-135 119q-10 8 -10 20z" />
<glyph unicode="x" horiz-adv-x="1110" d="M-8 977q0 16 14 16l342 27l221 -377l297 348l207 4q18 0 19 -10q0 -8 -5 -12l-432 -473l189 -295q37 -59 69.5 -96t57 -59.5t39 -33t14.5 -14.5q0 -12 -37 -34.5t-84 -22.5q-68 0 -111.5 37.5t-93.5 101.5l-196 256l-371 -399l-102 86l387 440l-254 385l-162 111 q-8 6 -8 14z" />
<glyph unicode="y" horiz-adv-x="1089" d="M-47 983q0 14 29 16l307 21l289 -756l333 733l181 9h12q14 0 14 -9q0 -2 -4 -14l-567 -1124q-102 -201 -250 -201q-47 0 -72.5 12.5t-25.5 28.5q0 8 13 20.5t34.5 32t47 48t50.5 71.5l109 195l-359 790l-133 111q-8 6 -8 16z" />
<glyph unicode="z" horiz-adv-x="1062" d="M20 6q0 8 11 19l665 843l-381 -16l-196 -119q-20 -10 -25 -10q-12 0 -12 27l14 245h930q20 0 21 -14q0 -6 -7 -12l-692 -822h385q61 0 102.5 3.5t66 8.5t34.5 8t14 3q16 0 17 -10q0 -12 -17.5 -43t-54.5 -66q-39 -39 -79 -42t-99 -5l-678 -10q-18 0 -19 12z" />
<glyph unicode="{" d="M168 457v149q12 0 23.5 -1t21.5 -1q131 0 184.5 61.5t53.5 206.5v246q0 117 16 191.5t84 115.5q51 31 118.5 41.5t159.5 10.5h37v-150h-41q-63 0 -103 -11t-61.5 -38t-29.5 -71t-8 -109v-242q0 -72 -8.5 -125t-30 -93t-61.5 -65.5t-101 -42.5q63 -16 102 -41.5 t60.5 -65.5t30 -93.5t8.5 -124.5v-242q0 -66 7 -109.5t29.5 -70.5t62.5 -38t105 -11h39v-148h-43q-90 0 -156.5 9.5t-115.5 39.5q-68 41 -84 116t-16 192v245q0 145 -53.5 208t-186.5 63q-10 0 -21.5 -1t-21.5 -1z" />
<glyph unicode="|" d="M438 -483v2048h150v-2048h-150z" />
<glyph unicode="}" d="M160 -266h39q63 0 104 11t62.5 38t29.5 72t8 110v240q0 72 8.5 125t30 93t61.5 65.5t101 41.5q-61 16 -101 42t-61.5 66t-30 93t-8.5 125v242q0 66 -8 109.5t-29.5 70.5t-62.5 38t-104 11h-39v150h37q92 0 160.5 -10.5t117.5 -41.5q68 -41 84 -115.5t16 -191.5v-246 q0 -74 12.5 -124t40 -82.5t74 -47t111.5 -14.5q10 0 21.5 1t23.5 1v-149q-10 0 -21.5 1t-21.5 1q-135 0 -187.5 -62.5t-52.5 -208.5v-245q0 -117 -16 -192t-84 -116q-49 -31 -115.5 -40t-156.5 -9h-43v148z" />
<glyph unicode="~" horiz-adv-x="1705" d="M178 451v155q211 143 387 144q80 0 150.5 -18.5t140.5 -43.5q76 -27 145.5 -49.5t141.5 -22.5q96 0 188 39t199 115v-156q-102 -72 -196.5 -106.5t-192.5 -34.5q-78 0 -147.5 22.5t-141.5 47.5t-141.5 45t-147.5 20q-92 0 -183 -40t-202 -117z" />
<glyph unicode="&#xa1;" horiz-adv-x="598" d="M139 1331q0 66 47 111t111 45q63 0 109.5 -46.5t46.5 -109.5t-45.5 -109t-110.5 -46q-66 0 -112 45t-46 110zM141 -25l62 1037l186 26l-4 -848l127 -139q8 -8 8 -18q0 -14 -20 -19z" />
<glyph unicode="&#xa2;" horiz-adv-x="1157" d="M96 432q0 172 119 316.5t338 216.5l-4 188l88 37q18 6 31 6q18 0 18 -37l-4 -168q23 2 45.5 3t46.5 1q49 0 97.5 -6t95.5 -20l-19 -230q-2 -20 -10 -20q-10 0 -16 6l-166 129q-4 4 -41 4q-6 0 -15.5 -1t-21.5 -1l-16 -696h22q125 0 303 65l-26 -116q-129 -76 -304 -103 q-6 -219 -69 -219q-12 0 -15.5 7t-3.5 20l-2 186q-104 0 -191 33t-149.5 91t-96.5 137t-34 171zM309 496q0 -123 66.5 -208t189.5 -118l-10 666q-117 -39 -181.5 -129.5t-64.5 -210.5z" />
<glyph unicode="&#xa3;" horiz-adv-x="1157" d="M80 596q0 8 2 14l33 117h104q-8 59 -12 111.5t-4 99.5q0 215 121.5 333t326.5 118q86 0 163 -16.5t155 -53.5l-29 -266q-4 -25 -14 -25q-8 0 -19 14l-127 205q-20 2 -38.5 4t-36.5 2q-129 0 -197 -69.5t-68 -210.5q0 -43 5.5 -104.5t13.5 -141.5h289q18 0 30.5 -2 t12.5 -16q0 -10 -21.5 -42t-50.5 -46q-23 -10 -85.5 -12.5t-166.5 -10.5q2 -35 3 -66.5t1 -64.5q0 -166 -78 -301l598 -14q29 0 37 -3.5t8 -15.5q0 -16 -13 -38.5t-41 -44t-69 -36t-94 -14.5h-592q-33 0 -32 16q0 12 12 35t27.5 59.5t27.5 87t12 115.5q0 55 -8 123t-24 152 l-123 -6h-10q-29 0 -29 14z" />
<glyph unicode="&#xa4;" horiz-adv-x="1157" d="M8 516l25 109h110v14q0 35 3.5 68.5t7.5 66.5l-146 -2l25 109h147q59 182 201 317q96 92 216 141.5t249 49.5q66 0 135.5 -14.5t116.5 -41.5l-13 -262q0 -16 -8 -16q-2 0 -10 4l-152 162q-23 10 -47 13t-45 3q-78 0 -143.5 -29.5t-115.5 -79t-87 -114t-59 -133.5h543 q4 -4 8 -3t4 -6q0 -59 -47 -76.5t-142 -17.5h-62.5t-91.5 -1t-112.5 -1h-122.5q-4 -29 -7 -54.5t-3 -51.5q0 -10 1 -22.5t1 -22.5h504q4 0 5 -1t3 -1q12 0 12 -11q0 -63 -53 -77.5t-164 -14.5h-114.5t-180.5 -2q14 -78 46 -147.5t81 -121.5t116 -84t153 -32q59 0 113.5 18.5 t96.5 40t69.5 40t31.5 18.5q8 0 8 -12q0 -6 -6 -43t-21 -103q-74 -55 -172 -86t-202 -31q-129 0 -242 62.5t-199 181.5q-49 66 -77.5 141.5t-40.5 155.5h-146z" />
<glyph unicode="&#xa5;" horiz-adv-x="1157" d="M14 1346q0 6 21 10l266 20l313 -780l318 758l170 12q20 0 20 -8q0 -6 -4 -12l-260 -533h191q10 0 10 -8q0 -51 -46 -66.5t-141 -15.5h-59l-68 -141h295q4 0 5.5 -1t3.5 -1q10 0 10 -11q0 -53 -52.5 -66.5t-162.5 -13.5q-35 0 -73 1.5t-81 1.5l-24 -486l-191 -31l4 514 l-346 -4l19 97h288l-69 139l-238 -4l19 96h178l-189 391l-116 125q-10 10 -11 17z" />
<glyph unicode="&#xa6;" d="M438 -350v758h150v-758h-150zM438 674v758h150v-758h-150z" />
<glyph unicode="&#xa7;" d="M61 33q131 -63 345 -64q80 0 140 17.5t101 45t61.5 62.5t20.5 68q0 39 -19.5 64.5t-60.5 48t-103.5 46t-148.5 56.5q-164 63 -241.5 129.5t-77.5 167.5q0 66 40 133t113 115q-111 86 -110 198q0 66 38 132.5t106.5 118.5t163.5 85t210 33q72 0 140.5 -11.5t138.5 -33.5 l-17 -246q-4 -31 -10 -31q-8 0 -21 17l-155 170q-33 10 -65 12t-62 2q-55 0 -104.5 -14.5t-86.5 -39t-58.5 -58t-21.5 -72.5t19.5 -64.5t57.5 -46t92.5 -40t125.5 -44.5q86 -31 151.5 -61.5t110 -66.5t67 -80t22.5 -101q0 -72 -37 -130t-111 -118q141 -80 141 -221 q0 -74 -39.5 -142.5t-111.5 -121.5t-170 -85t-213 -32q-102 0 -191.5 21.5t-154.5 58.5zM233 756q0 -39 31 -68t94.5 -59.5t156.5 -67.5t220 -90q68 63 68 133q0 41 -33 71t-95.5 59.5t-155.5 65.5t-214 89q-35 -39 -53.5 -71t-18.5 -62z" />
<glyph unicode="&#xa8;" d="M209 1294q0 47 36 84t85 37t84 -36t35 -85q0 -53 -33 -86.5t-86 -33.5q-51 0 -86 34.5t-35 85.5zM573 1294q0 47 36 84t85 37t84 -36t35 -85q0 -53 -32.5 -86.5t-86.5 -33.5q-51 0 -86 34.5t-35 85.5z" />
<glyph unicode="&#xa9;" horiz-adv-x="1705" d="M117 727q0 147 55 280.5t164 243.5q104 104 235 158.5t281 54.5q152 0 285 -54t239 -161q104 -104 159.5 -238t55.5 -284q0 -152 -54 -283t-159 -233q-111 -106 -245 -163.5t-281 -57.5t-279.5 56t-238.5 163q-106 106 -161.5 238.5t-55.5 279.5zM213 727 q0 -127 49 -242.5t141 -208.5q92 -92 207 -140t244 -48q127 0 242.5 49t212.5 142q90 88 137 201.5t47 246.5q0 131 -47 247t-137 206q-188 188 -455 188q-131 0 -244.5 -47t-203.5 -137q-94 -94 -143.5 -212t-49.5 -245zM463 733q0 100 28.5 183t81 140.5t125 89.5 t160.5 32q72 0 132.5 -19.5t105.5 -55.5t71.5 -86t32.5 -110h-147q-12 78 -65.5 119t-139.5 41q-102 0 -163.5 -87t-61.5 -253q0 -160 62.5 -246t172.5 -86q82 0 136.5 46t68.5 130h145q-10 -131 -107 -211.5t-249 -80.5q-180 0 -284.5 118.5t-104.5 335.5z" />
<glyph unicode="&#xaa;" horiz-adv-x="925" d="M29 991q0 96 51 189.5t149 169.5q80 63 169 96t180 33q45 0 120 -17l9 54q2 12 10 12h4q2 0 3 -1t3 -1l123 -58q-16 -203 -22.5 -338t-6.5 -202q0 -82 6.5 -121t6.5 -43q0 -16 -31 -16q-53 0 -94 47t-41 139q0 25 4 58.5t10 76.5q-90 -160 -191.5 -240.5t-207.5 -80.5 q-113 0 -183.5 67.5t-70.5 175.5zM170 1065q0 -76 45 -120t121 -44q121 0 210 107.5t138 318.5q-41 10 -81 16.5t-75 6.5q-80 0 -145.5 -22.5t-112.5 -61.5t-73.5 -91.5t-26.5 -109.5z" />
<glyph unicode="&#xab;" horiz-adv-x="944" d="M51 520l326 369l149 2q14 0 15 -6l-4 -8l-277 -357l277 -354q4 -4 4 -8q0 -6 -15 -6l-149 2zM403 520l326 369l148 2q14 0 14 -6l-4 -8l-275 -357l275 -354q4 -4 4 -8q0 -6 -14 -6l-148 2z" />
<glyph unicode="&#xac;" horiz-adv-x="1705" d="M254 721v139h1198v-502h-137v363h-1061z" />
<glyph unicode="&#xad;" horiz-adv-x="634" d="M37 432q0 8 14 39l49 127l469 -2q47 0 47 -27q0 -10 -8 -31.5t-27.5 -43t-50 -38t-75.5 -18.5l-379 -14q-39 0 -39 8z" />
<glyph unicode="&#xae;" horiz-adv-x="1705" d="M117 727q0 147 57 282.5t166 245.5q102 104 232 156.5t280 52.5q152 0 286 -55t240 -164q102 -104 157.5 -237.5t55.5 -280.5q0 -154 -55 -285t-160 -233q-111 -106 -245 -162.5t-279 -56.5q-147 0 -280.5 56t-239.5 165q-104 106 -159.5 237.5t-55.5 278.5zM213 727 q0 -127 48 -241.5t140 -206.5t208 -141.5t239 -49.5q131 0 246.5 48t212.5 140q92 88 139 202t47 243q0 135 -46 250.5t-136 206.5q-92 94 -208 142t-249 48q-129 0 -243.5 -46t-202.5 -136q-94 -96 -144.5 -214t-50.5 -245zM557 324v835h315q348 0 349 -229 q0 -90 -49.5 -148.5t-141.5 -76.5l187 -381h-177l-170 356h-155v-356h-158zM715 780h133q109 0 160 30t51 103q0 78 -52.5 111t-162.5 33h-129v-277z" />
<glyph unicode="&#xaf;" d="M236 1243v100q0 25 22 25h506q25 0 24 -25v-100q0 -23 -24 -22h-506q-23 0 -22 22z" />
<glyph unicode="&#xb0;" horiz-adv-x="673" d="M49 1167q0 61 22.5 113.5t62.5 91.5t92.5 61.5t111.5 22.5t111.5 -22.5t91.5 -61.5t61.5 -92t22.5 -113q0 -59 -22.5 -110t-60.5 -91t-91.5 -62.5t-114.5 -22.5t-113.5 22.5t-90.5 61.5t-60.5 91t-22.5 111zM143 1169q0 -82 56.5 -139t138.5 -57q41 0 77 15.5t61.5 43 t39.5 62t14 75.5q0 80 -55 136.5t-137 56.5q-41 0 -76 -14.5t-61.5 -41t-42 -61.5t-15.5 -76z" />
<glyph unicode="&#xb1;" horiz-adv-x="1705" d="M254 29v141h1198v-141h-1198zM254 713v139h528v340h142v-340h528v-139h-528v-340h-142v340h-528z" />
<glyph unicode="&#xb2;" horiz-adv-x="763" d="M80 606q92 70 162.5 124t120 97t75 78t25.5 68q0 41 -32 66.5t-91 25.5q-47 0 -104.5 -14.5t-126.5 -42.5l-23 59q90 45 170 68.5t158 23.5q96 0 151.5 -48t55.5 -114q0 -49 -24 -90t-72 -81t-118.5 -83t-162.5 -96l381 -10q18 0 23 -1t5 -9q0 -20 -35.5 -50t-107.5 -30 h-412z" />
<glyph unicode="&#xb3;" horiz-adv-x="763" d="M98 975v4l21 166h545q18 0 18 -10q0 -8 -4 -13l-281 -295q123 -4 188.5 -55t65.5 -137q0 -61 -34.5 -117.5t-99 -99.5t-158 -68.5t-209.5 -27.5l-21 63q172 12 267.5 81t95.5 155q0 143 -256 151l237 289l-227 -8l-127 -82q-8 -4 -13 -4q-8 0 -8 8z" />
<glyph unicode="&#xb4;" d="M365 1141q74 86 124 169t80 160l222 17q-80 -186 -297 -365z" />
<glyph unicode="&#xb6;" d="M66 1130q0 76 27.5 140.5t78.5 110.5t124 72t163 26h499v-86h-120v-1393h-111v1393h-178v-1393h-111v782q-174 8 -273 103.5t-99 244.5z" />
<glyph unicode="&#xb7;" horiz-adv-x="577" d="M133 498q0 63 45 109t111 46t110.5 -45t44.5 -110q0 -66 -46 -111t-109 -45t-109.5 46.5t-46.5 109.5z" />
<glyph unicode="&#xb8;" d="M199 -324q0 14 16 15q4 0 22.5 -7.5t51.5 -16.5t78 -16t104 -7q104 0 104 75q0 43 -32.5 60.5t-104.5 17.5q-10 0 -21 -1t-24 -1v205h90v-94h17q236 0 235 -193q0 -188 -264 -188q-35 0 -94.5 7t-132.5 30l-39 98q-4 8 -4 12q-2 2 -2 4z" />
<glyph unicode="&#xb9;" horiz-adv-x="763" d="M133 1028q98 23 170 48.5t120 48t72.5 37t30.5 14.5t6 -11v-10l-34 -604l-131 -19v474q-63 -14 -117.5 -22.5t-102.5 -10.5z" />
<glyph unicode="&#xba;" horiz-adv-x="894" d="M39 1053q0 94 50 170.5t155 144.5l-35 39q-8 12 -8 14t19.5 12.5t54 19.5t83 17.5t105.5 8.5q88 0 159.5 -24.5t124 -66.5t81 -99.5t28.5 -123.5q0 -174 -164 -307q-137 -111 -319 -110q-74 0 -135.5 22.5t-105.5 63t-68.5 97t-24.5 122.5zM213 1090q0 -51 18.5 -95.5 t49 -77t71.5 -51t88 -18.5q49 0 92 20.5t76 55t52.5 84t19.5 108.5q0 115 -78 185.5t-209 70.5h-8q-82 -53 -127 -127t-45 -155z" />
<glyph unicode="&#xbb;" horiz-adv-x="944" d="M51 156q0 2 4 10l277 354l-277 354q-4 8 -4 11q0 6 15 6l149 -4l326 -367l-326 -366l-149 -4q-14 0 -15 6zM401 156q0 2 2.5 4t4.5 6l274 354l-274 354q-4 8 -5 11q0 6 13 6l149 -4l326 -367l-326 -366l-149 -4q-14 0 -15 6z" />
<glyph unicode="&#xbc;" horiz-adv-x="1800" d="M127 1051q94 20 162.5 43.5t114 44t70 35t28.5 14.5q6 0 6 -10v-11l-35 -563l-125 -18v442q-59 -12 -110.5 -20.5t-96.5 -10.5zM387 -6q0 8 14 31l883 1364l100 -19q29 -6 29 -20q0 -6 -8 -19l-879 -1276q-27 -39 -58.5 -59.5t-59.5 -20.5q-20 0 -21 19zM1061 39 q248 281 393 415t160 134q8 0 8 -17l-25 -491l127 -2q18 0 19 -8q0 -12 -33 -39t-100 -27h-17l-10 -188l-110 -31l2 215h-402zM1182 80h293l2 287z" />
<glyph unicode="&#xbd;" horiz-adv-x="1800" d="M127 1051q94 20 162.5 43.5t114 44t70 35t28.5 14.5q6 0 6 -10v-11l-35 -563l-125 -18v442q-59 -12 -110.5 -20.5t-96.5 -10.5zM387 -6q0 8 14 31l883 1364l100 -19q29 -6 29 -20q0 -6 -8 -19l-879 -1276q-27 -39 -58.5 -59.5t-59.5 -20.5q-20 0 -21 19zM1147 55 q88 66 155.5 116t113.5 90t70.5 73t24.5 63q0 41 -29.5 63.5t-86.5 22.5q-84 0 -219 -53l-23 55q86 41 164 63.5t149 22.5q92 0 144.5 -45t52.5 -104q0 -45 -22.5 -84t-67.5 -77t-112.5 -79t-155.5 -90l362 -8q29 0 29 -10q0 -16 -35 -45t-102 -29h-396z" />
<glyph unicode="&#xbe;" horiz-adv-x="1800" d="M94 999v5l19 153h520q18 0 18 -8t-4 -10l-268 -277q117 -4 180.5 -52t63.5 -128q0 -57 -33 -109.5t-95.5 -92.5t-151.5 -64.5t-200 -26.5l-20 62q82 4 146.5 24.5t108.5 50t67.5 66.5t23.5 78q0 133 -244 141l226 270l-215 -8l-123 -78q-4 -4 -11 -4q-8 0 -8 8zM387 -6 q0 8 14 31l883 1364l100 -19q29 -6 29 -20q0 -6 -8 -19l-879 -1276q-27 -39 -58.5 -59.5t-59.5 -20.5q-20 0 -21 19zM1061 39q248 281 393 415t160 134q8 0 8 -17l-25 -491l127 -2q18 0 19 -8q0 -12 -33 -39t-100 -27h-17l-10 -188l-110 -31l2 215h-402zM1182 80h293l2 287z " />
<glyph unicode="&#xbf;" horiz-adv-x="1042" d="M51 322q0 66 21.5 120t60.5 104t90 100t113 112q57 57 96 112.5t53 141.5l131 18v-22q0 -139 -102 -275q-45 -59 -83 -109.5t-66.5 -95.5t-45 -85t-16.5 -78q0 -43 17.5 -81t51.5 -68t82 -47t109 -17q84 0 180.5 38.5t212.5 110.5l60 -108q-291 -217 -549 -218 q-94 0 -171 28t-131 76t-84 110.5t-30 132.5zM418 1331q0 66 46 111t109 45t109.5 -46.5t46.5 -109.5t-45 -109t-111 -46t-110.5 45t-44.5 110z" />
<glyph unicode="&#xc0;" horiz-adv-x="1374" d="M-119 -45q0 6 10 27l469 909q86 166 140.5 286.5t54.5 206.5v21l250 84l549 -1464l-183 -76l-208 487l-381 -4q-74 0 -129.5 -3t-98.5 -18.5t-77.5 -48t-67.5 -96.5l-117 -221q-55 -106 -166 -106q-23 0 -34 6t-11 10zM385 590l520 -15l-233 564zM430 1956l222 -17 q72 -176 204 -329l-129 -19q-221 178 -297 365z" />
<glyph unicode="&#xc1;" horiz-adv-x="1374" d="M-119 -45q0 6 10 27l469 909q86 166 140.5 286.5t54.5 206.5v21l250 84l549 -1464l-183 -76l-208 487l-381 -4q-74 0 -129.5 -3t-98.5 -18.5t-77.5 -48t-67.5 -96.5l-117 -221q-55 -106 -166 -106q-23 0 -34 6t-11 10zM385 590l520 -15l-233 564zM562 1610q74 86 124 169 t80 160l222 17q-80 -186 -297 -365z" />
<glyph unicode="&#xc2;" horiz-adv-x="1374" d="M-119 -45q0 6 10 27l469 909q86 166 140.5 286.5t54.5 206.5v21l250 84l549 -1464l-183 -76l-208 487l-381 -4q-74 0 -129.5 -3t-98.5 -18.5t-77.5 -48t-67.5 -96.5l-117 -221q-55 -106 -166 -106q-23 0 -34 6t-11 10zM385 590l520 -15l-233 564zM410 1614l16 26l172 287 l217 21l191 -330l-137 -19l-166 209l-121 -143q-10 -12 -20.5 -24.5t-25.5 -21.5t-37.5 -14.5t-59.5 -5.5q-10 0 -19.5 5.5t-9.5 9.5z" />
<glyph unicode="&#xc3;" horiz-adv-x="1374" d="M-119 -45q0 6 10 27l469 909q86 166 140.5 286.5t54.5 206.5v21l250 84l549 -1464l-183 -76l-208 487l-381 -4q-74 0 -129.5 -3t-98.5 -18.5t-77.5 -48t-67.5 -96.5l-117 -221q-55 -106 -166 -106q-23 0 -34 6t-11 10zM385 590l520 -15l-233 564zM408 1636 q39 219 192 219q39 0 84 -14l88 -24q14 -4 26.5 -5.5t25.5 -1.5q31 0 53 18.5t33 55.5h100q-23 -117 -71 -171t-130 -54q-31 0 -67 10l-84 23q-16 4 -31.5 8t-32.5 4q-66 0 -86 -68h-100z" />
<glyph unicode="&#xc4;" horiz-adv-x="1374" d="M-119 -45q0 6 10 27l469 909q86 166 140.5 286.5t54.5 206.5v21l250 84l549 -1464l-183 -76l-208 487l-381 -4q-74 0 -129.5 -3t-98.5 -18.5t-77.5 -48t-67.5 -96.5l-117 -221q-55 -106 -166 -106q-23 0 -34 6t-11 10zM385 590l520 -15l-233 564zM406 1763q0 47 36 84 t85 37t84 -36t35 -85q0 -53 -33 -86.5t-86 -33.5q-51 0 -86 34.5t-35 85.5zM770 1763q0 47 36 84t85 37t84 -36t35 -85q0 -53 -32.5 -86.5t-86.5 -33.5q-51 0 -86 34.5t-35 85.5z" />
<glyph unicode="&#xc5;" horiz-adv-x="1374" d="M-119 -45q0 6 10 27l469 909q86 166 141.5 281.5t55.5 207.5q0 6 -1 12.5t-1 12.5l250 84l549 -1464l-183 -76l-208 487l-381 -4q-74 0 -129.5 -3t-98.5 -18.5t-77.5 -48t-67.5 -96.5l-117 -221q-55 -106 -166 -106q-23 0 -34 6t-11 10zM385 590l520 -15l-233 564z M467 1749q0 49 18.5 92t50 76t76 51.5t93.5 18.5t92 -18.5t74.5 -51.5t50 -76t18.5 -92t-18.5 -92t-50 -75t-74.5 -50.5t-92 -18.5t-93.5 18.5t-76 50.5t-50 75t-18.5 92zM588 1749q0 -49 33.5 -83t83.5 -34q49 0 82.5 34t33.5 83t-33.5 83t-82.5 34t-83 -34t-34 -83z" />
<glyph unicode="&#xc6;" horiz-adv-x="1925" d="M-119 -45q0 6 10 27l670 1300l-123 154q-8 12 -8 16q0 12 23 12h1370q27 0 26 -12q0 -8 -2 -12l-51 -103l-678 -34l-18 -426l657 -5q20 0 21 -10q0 -2 -4 -10l-76 -102l-602 -54l-17 -297q0 -14 -1 -30.5t-1 -34.5q0 -86 49.5 -118t161.5 -32l479 2q20 0 29.5 -3t9.5 -17 t-13 -34.5t-36.5 -41t-57.5 -36t-77 -19.5q-55 -4 -245.5 -10.5t-520.5 -24.5l-2 508l-233 -6q-57 -2 -91 -2h-45q-86 0 -140 -41t-97 -123l-156 -291q-55 -106 -166 -106q-23 0 -34 6t-11 10zM422 662l432 -17l-4 647q0 10 -4 16.5t-8 6.5h-27q-4 0 -12 -6t-19 -23z" />
<glyph unicode="&#xc7;" horiz-adv-x="1431" d="M100 686q0 354 299 598q121 98 273.5 151.5t312.5 53.5q182 0 307 -59l-14 -281q0 -18 -10 -19q-8 0 -15 7l-190 172q-29 10 -61.5 14t-71.5 4q-121 0 -223.5 -47t-179 -129t-119.5 -193.5t-43 -238.5q0 -123 39.5 -228.5t111.5 -182.5t171 -120t216 -43q86 0 156.5 19.5 t122 42t83 42t38.5 19.5q10 0 10 -12q0 -6 -8.5 -45t-24.5 -111q-94 -59 -212 -92t-251 -33q-160 0 -303 67t-252 194q-78 92 -120 207.5t-42 242.5zM514 -324q0 14 16 15q4 0 22.5 -7.5t51.5 -16.5t78 -16t104 -7q104 0 104 75q0 43 -32.5 60.5t-104.5 17.5q-10 0 -21 -1 t-24 -1v205h90v-94h17q236 0 235 -193q0 -188 -264 -188q-35 0 -94.5 7t-132.5 30l-39 98q-4 8 -4 12q-2 2 -2 4z" />
<glyph unicode="&#xc8;" horiz-adv-x="1251" d="M47 1452q0 12 21 12h1081q29 0 29 -12q0 -4 -4 -12l-50 -103l-680 -34l-16 -426l655 -5q20 0 21 -10q0 -2 -4 -10l-76 -102l-602 -54l-14 -297q0 -14 -1 -30.5t-1 -34.5q0 -86 48 -118t160 -32l480 2q20 0 29.5 -3t9.5 -17t-12.5 -34.5t-36 -41t-57.5 -36t-77 -19.5 q-55 -4 -245.5 -10.5t-520.5 -24.5l-6 1282l-125 154q-6 8 -6 16zM378 1956l222 -17q72 -176 204 -329l-129 -19q-221 178 -297 365z" />
<glyph unicode="&#xc9;" horiz-adv-x="1251" d="M47 1452q0 12 21 12h1081q29 0 29 -12q0 -4 -4 -12l-50 -103l-680 -34l-16 -426l655 -5q20 0 21 -10q0 -2 -4 -10l-76 -102l-602 -54l-14 -297q0 -14 -1 -30.5t-1 -34.5q0 -86 48 -118t160 -32l480 2q20 0 29.5 -3t9.5 -17t-12.5 -34.5t-36 -41t-57.5 -36t-77 -19.5 q-55 -4 -245.5 -10.5t-520.5 -24.5l-6 1282l-125 154q-6 8 -6 16zM510 1610q74 86 124 169t80 160l222 17q-80 -186 -297 -365z" />
<glyph unicode="&#xca;" horiz-adv-x="1251" d="M47 1452q0 12 21 12h1081q29 0 29 -12q0 -4 -4 -12l-50 -103l-680 -34l-16 -426l655 -5q20 0 21 -10q0 -2 -4 -10l-76 -102l-602 -54l-14 -297q0 -14 -1 -30.5t-1 -34.5q0 -86 48 -118t160 -32l480 2q20 0 29.5 -3t9.5 -17t-12.5 -34.5t-36 -41t-57.5 -36t-77 -19.5 q-55 -4 -245.5 -10.5t-520.5 -24.5l-6 1282l-125 154q-6 8 -6 16zM358 1614l16 26l172 287l217 21l191 -330l-137 -19l-166 209l-121 -143q-10 -12 -20.5 -24.5t-25.5 -21.5t-37.5 -14.5t-59.5 -5.5q-10 0 -19.5 5.5t-9.5 9.5z" />
<glyph unicode="&#xcb;" horiz-adv-x="1251" d="M47 1452q0 12 21 12h1081q29 0 29 -12q0 -4 -4 -12l-50 -103l-680 -34l-16 -426l655 -5q20 0 21 -10q0 -2 -4 -10l-76 -102l-602 -54l-14 -297q0 -14 -1 -30.5t-1 -34.5q0 -86 48 -118t160 -32l480 2q20 0 29.5 -3t9.5 -17t-12.5 -34.5t-36 -41t-57.5 -36t-77 -19.5 q-55 -4 -245.5 -10.5t-520.5 -24.5l-6 1282l-125 154q-6 8 -6 16zM354 1763q0 47 36 84t85 37t84 -36t35 -85q0 -53 -33 -86.5t-86 -33.5q-51 0 -86 34.5t-35 85.5zM718 1763q0 47 36 84t85 37t84 -36t35 -85q0 -53 -32.5 -86.5t-86.5 -33.5q-51 0 -86 34.5t-35 85.5z" />
<glyph unicode="&#xcc;" horiz-adv-x="602" d="M24 1956l222 -17q72 -176 204 -329l-129 -19q-221 178 -297 365zM37 1427q0 10 24 15l396 35l-64 -1477l-209 -25l-6 1278l-129 154q-12 14 -12 20z" />
<glyph unicode="&#xcd;" horiz-adv-x="602" d="M37 1427q0 10 24 15l396 35l-64 -1477l-209 -25l-6 1278l-129 154q-12 14 -12 20zM156 1610q74 86 124 169t80 160l222 17q-80 -186 -297 -365z" />
<glyph unicode="&#xce;" horiz-adv-x="602" d="M4 1614l16 26l172 287l217 21l191 -330l-137 -19l-166 209l-121 -143q-10 -12 -20.5 -24.5t-25.5 -21.5t-37.5 -14.5t-59.5 -5.5q-10 0 -19.5 5.5t-9.5 9.5zM37 1427q0 10 24 15l396 35l-64 -1477l-209 -25l-6 1278l-129 154q-12 14 -12 20z" />
<glyph unicode="&#xcf;" horiz-adv-x="602" d="M0 1763q0 47 36 84t85 37t84 -36t35 -85q0 -53 -33 -86.5t-86 -33.5q-51 0 -86 34.5t-35 85.5zM37 1427q0 10 24 15l396 35l-64 -1477l-209 -25l-6 1278l-129 154q-12 14 -12 20zM364 1763q0 47 36 84t85 37t84 -36t35 -85q0 -53 -32.5 -86.5t-86.5 -33.5q-51 0 -86 34.5 t-35 85.5z" />
<glyph unicode="&#xd0;" horiz-adv-x="1503" d="M47 694l31 119h145l-4 461l-137 160q-8 8 -8 16q0 12 14 12l309 13q31 2 68 2h84q444 0 668.5 -157t224.5 -452q0 -201 -106.5 -385t-305.5 -317q-86 -59 -173 -92t-178 -49.5t-185.5 -20.5t-196.5 -4h-72l-2 696zM451 283q0 -111 153 -111q78 0 173 35t179 100 q111 86 172.5 213t61.5 281q0 119 -46 216t-132 165.5t-208 106.5t-276 38q-10 0 -18 1t-16 1l-23 -516h313q27 0 27 -10q0 -4 -5 -15.5t-13.5 -25.5t-19.5 -26.5t-23 -18.5q-43 -20 -248 -21h-35l-14 -358q0 -18 -1 -31.5t-1 -23.5z" />
<glyph unicode="&#xd1;" horiz-adv-x="1507" d="M37 1427q0 10 24 15l396 35l751 -1182l-6 1151l168 29q6 2 11 2h10q8 0 8 -17l-56 -1417l-143 -49q-12 -4 -16 -4h-6q-6 0 -19 16l-792 1149l-41 -1034q-2 -47 -15.5 -82t-32 -57.5t-40 -32.5t-35.5 -10q-18 0 -22.5 10t-4.5 39q0 10 1 18t1 14v1233l-129 154 q-12 14 -12 20zM512 1636q39 219 192 219q39 0 84 -14l88 -24q14 -4 26.5 -5.5t25.5 -1.5q31 0 53 18.5t33 55.5h100q-23 -117 -71 -171t-130 -54q-31 0 -67 10l-84 23q-16 4 -31.5 8t-32.5 4q-66 0 -86 -68h-100z" />
<glyph unicode="&#xd2;" horiz-adv-x="1564" d="M66 610q0 295 178 529l-90 84q-10 10 -11 14q0 20 160 111q125 70 257 105.5t255 35.5q150 0 276 -51.5t216 -141.5t140 -214t50 -269q0 -141 -51 -281.5t-152 -263.5q-240 -293 -594 -293q-127 0 -242.5 46.5t-202.5 130.5t-138 200.5t-51 257.5zM272 750 q0 -117 43 -220.5t116 -179.5t170 -120t206 -44q102 0 191 40t156 110t104.5 163t37.5 199q0 117 -42 219.5t-118.5 178t-183 120t-235.5 44.5q-132 0 -238 -33q-102 -102 -154.5 -222t-52.5 -255zM503 1956l222 -17q72 -176 204 -329l-129 -19q-221 178 -297 365z" />
<glyph unicode="&#xd3;" horiz-adv-x="1564" d="M66 610q0 295 178 529l-90 84q-10 10 -11 14q0 20 160 111q125 70 257 105.5t255 35.5q150 0 276 -51.5t216 -141.5t140 -214t50 -269q0 -141 -51 -281.5t-152 -263.5q-240 -293 -594 -293q-127 0 -242.5 46.5t-202.5 130.5t-138 200.5t-51 257.5zM272 750 q0 -117 43 -220.5t116 -179.5t170 -120t206 -44q102 0 191 40t156 110t104.5 163t37.5 199q0 117 -42 219.5t-118.5 178t-183 120t-235.5 44.5q-132 0 -238 -33q-102 -102 -154.5 -222t-52.5 -255zM635 1610q74 86 124 169t80 160l222 17q-80 -186 -297 -365z" />
<glyph unicode="&#xd4;" horiz-adv-x="1564" d="M66 610q0 295 178 529l-90 84q-10 10 -11 14q0 20 160 111q125 70 257 105.5t255 35.5q150 0 276 -51.5t216 -141.5t140 -214t50 -269q0 -141 -51 -281.5t-152 -263.5q-240 -293 -594 -293q-127 0 -242.5 46.5t-202.5 130.5t-138 200.5t-51 257.5zM272 750 q0 -117 43 -220.5t116 -179.5t170 -120t206 -44q102 0 191 40t156 110t104.5 163t37.5 199q0 117 -42 219.5t-118.5 178t-183 120t-235.5 44.5q-132 0 -238 -33q-102 -102 -154.5 -222t-52.5 -255zM483 1614l16 26l172 287l217 21l191 -330l-137 -19l-166 209l-121 -143 q-10 -12 -20.5 -24.5t-25.5 -21.5t-37.5 -14.5t-59.5 -5.5q-10 0 -19.5 5.5t-9.5 9.5z" />
<glyph unicode="&#xd5;" horiz-adv-x="1564" d="M66 610q0 295 178 529l-90 84q-10 10 -11 14q0 20 160 111q125 70 257 105.5t255 35.5q150 0 276 -51.5t216 -141.5t140 -214t50 -269q0 -141 -51 -281.5t-152 -263.5q-240 -293 -594 -293q-127 0 -242.5 46.5t-202.5 130.5t-138 200.5t-51 257.5zM272 750 q0 -117 43 -220.5t116 -179.5t170 -120t206 -44q102 0 191 40t156 110t104.5 163t37.5 199q0 117 -42 219.5t-118.5 178t-183 120t-235.5 44.5q-132 0 -238 -33q-102 -102 -154.5 -222t-52.5 -255zM481 1636q39 219 192 219q39 0 84 -14l88 -24q14 -4 26.5 -5.5t25.5 -1.5 q31 0 53 18.5t33 55.5h100q-23 -117 -71 -171t-130 -54q-31 0 -67 10l-84 23q-16 4 -31.5 8t-32.5 4q-66 0 -86 -68h-100z" />
<glyph unicode="&#xd6;" horiz-adv-x="1564" d="M66 610q0 295 178 529l-90 84q-10 10 -11 14q0 20 160 111q125 70 257 105.5t255 35.5q150 0 276 -51.5t216 -141.5t140 -214t50 -269q0 -141 -51 -281.5t-152 -263.5q-240 -293 -594 -293q-127 0 -242.5 46.5t-202.5 130.5t-138 200.5t-51 257.5zM272 750 q0 -117 43 -220.5t116 -179.5t170 -120t206 -44q102 0 191 40t156 110t104.5 163t37.5 199q0 117 -42 219.5t-118.5 178t-183 120t-235.5 44.5q-132 0 -238 -33q-102 -102 -154.5 -222t-52.5 -255zM479 1763q0 47 36 84t85 37t84 -36t35 -85q0 -53 -33 -86.5t-86 -33.5 q-51 0 -86 34.5t-35 85.5zM843 1763q0 47 36 84t85 37t84 -36t35 -85q0 -53 -32.5 -86.5t-86.5 -33.5q-51 0 -86 34.5t-35 85.5z" />
<glyph unicode="&#xd7;" horiz-adv-x="1705" d="M293 141l469 469l-469 469l98 99l469 -469l469 469l98 -99l-469 -469l469 -469l-98 -96l-469 467l-469 -467z" />
<glyph unicode="&#xd8;" horiz-adv-x="1564" d="M18 37q0 14 33 34.5t76 65.5l76 78q-137 154 -137 395q0 295 178 529l-90 84q-10 10 -11 14q0 6 40 36t120 75q123 70 256 105.5t256 35.5q238 0 418 -131l113 135q12 14 20 14t18 -4l107 -43q14 -6 14 -14q0 -4 -10 -19l-160 -161q162 -197 162 -453q0 -143 -51 -282.5 t-152 -262.5q-240 -293 -594 -293q-117 0 -219 42t-213 122l-32 -26q-57 -49 -104.5 -73t-82.5 -24q-31 0 -31 21zM272 752q0 -100 30 -187.5t85 -156.5l672 749q-61 47 -149.5 75t-192.5 28q-127 0 -238 -33q-102 -102 -154.5 -222t-52.5 -253zM455 332q68 -72 159 -109 t195 -37q100 0 189 40t156 110t104.5 163t37.5 199t-36.5 201.5t-106.5 173.5z" />
<glyph unicode="&#xd9;" horiz-adv-x="1449" d="M37 1427q0 10 24 15l396 35l-37 -947v-36q0 -186 76.5 -275.5t246.5 -89.5q182 0 261 118t79 357v21l-12 835l205 21h10q18 0 19 -21l-17 -612q-4 -176 -16 -320.5t-72 -267.5q-66 -139 -194.5 -212t-315.5 -73q-297 0 -420 164q-63 84 -76.5 192.5t-13.5 250.5l-2 671 l-129 154q-12 14 -12 20zM489 1956l222 -17q72 -176 204 -329l-129 -19q-221 178 -297 365z" />
<glyph unicode="&#xda;" horiz-adv-x="1449" d="M37 1427q0 10 24 15l396 35l-37 -947v-36q0 -186 76.5 -275.5t246.5 -89.5q182 0 261 118t79 357v21l-12 835l205 21h10q18 0 19 -21l-17 -612q-4 -176 -16 -320.5t-72 -267.5q-66 -139 -194.5 -212t-315.5 -73q-297 0 -420 164q-63 84 -76.5 192.5t-13.5 250.5l-2 671 l-129 154q-12 14 -12 20zM621 1610q74 86 124 169t80 160l222 17q-80 -186 -297 -365z" />
<glyph unicode="&#xdb;" horiz-adv-x="1449" d="M37 1427q0 10 24 15l396 35l-37 -947v-36q0 -186 76.5 -275.5t246.5 -89.5q182 0 261 118t79 357v21l-12 835l205 21h10q18 0 19 -21l-17 -612q-4 -176 -16 -320.5t-72 -267.5q-66 -139 -194.5 -212t-315.5 -73q-297 0 -420 164q-63 84 -76.5 192.5t-13.5 250.5l-2 671 l-129 154q-12 14 -12 20zM469 1614l16 26l172 287l217 21l191 -330l-137 -19l-166 209l-121 -143q-10 -12 -20.5 -24.5t-25.5 -21.5t-37.5 -14.5t-59.5 -5.5q-10 0 -19.5 5.5t-9.5 9.5z" />
<glyph unicode="&#xdc;" horiz-adv-x="1449" d="M37 1427q0 10 24 15l396 35l-37 -947v-36q0 -186 76.5 -275.5t246.5 -89.5q182 0 261 118t79 357v21l-12 835l205 21h10q18 0 19 -21l-17 -612q-4 -176 -16 -320.5t-72 -267.5q-66 -139 -194.5 -212t-315.5 -73q-297 0 -420 164q-63 84 -76.5 192.5t-13.5 250.5l-2 671 l-129 154q-12 14 -12 20zM465 1763q0 47 36 84t85 37t84 -36t35 -85q0 -53 -33 -86.5t-86 -33.5q-51 0 -86 34.5t-35 85.5zM829 1763q0 47 36 84t85 37t84 -36t35 -85q0 -53 -32.5 -86.5t-86.5 -33.5q-51 0 -86 34.5t-35 85.5z" />
<glyph unicode="&#xdd;" horiz-adv-x="1318" d="M-23 1440q0 10 23 12l326 25l374 -942l383 915l203 12h12q14 0 15 -8q0 -8 -4 -14l-682 -1395q-57 -117 -116.5 -180.5t-156.5 -63.5q-49 0 -49 23q0 10 14.5 25.5t30.5 46.5l223 428l-442 944l-143 151q-6 6 -8.5 12.5t-2.5 8.5zM512 1610q74 86 124 169t80 160l222 17 q-80 -186 -297 -365z" />
<glyph unicode="&#xde;" horiz-adv-x="1214" d="M33 1434q0 14 26 16l387 27l-6 -234q43 2 75 2h52q143 0 253 -29.5t184.5 -82t112.5 -126t38 -159.5q0 -203 -191.5 -349.5t-562.5 -205.5l-4 -90q-2 -41 -4 -78t-24 -72q-16 -27 -40 -47t-48.5 -35.5t-45 -23.5t-30.5 -8q-14 0 -17.5 6t-3.5 18v8l-8 1293l-135 153 q-8 8 -8 17zM408 449q115 6 204.5 38.5t153 83t96.5 115t33 137.5q0 135 -106.5 207t-323.5 72q-4 0 -11.5 1t-21.5 1z" />
<glyph unicode="&#xdf;" horiz-adv-x="1337" d="M0 862q0 12 2 19l35 114h209v49q0 518 452 519q164 0 258.5 -75t94.5 -192q0 -55 -19.5 -99t-51.5 -83t-75 -77t-90 -79q-39 -35 -62.5 -64.5t-23.5 -64.5q0 -29 14.5 -50t42 -38.5t66.5 -35t88 -37.5q76 -31 133 -64t95 -72.5t57.5 -89t19.5 -112.5q0 -78 -31.5 -142.5 t-89 -111.5t-135.5 -74t-170 -27q-82 0 -151.5 18.5t-120.5 51.5l-15 113q109 -45 259 -45q119 0 185 46t66 122q0 68 -51 110.5t-162 89.5q-61 27 -110 50.5t-84 53t-53.5 68.5t-18.5 95q0 45 13.5 80.5t35 65.5t47 57.5t52.5 56.5q127 139 127 270q0 76 -37 117t-105 41 t-107.5 -32t-61 -89.5t-28.5 -138t-12 -181.5l-26 -743q-6 -143 -13.5 -254t-29 -186.5t-61.5 -114.5t-109 -39q-25 0 -25 16q0 4 3 23.5t8.5 62.5t8.5 114t3 175v803l-213 -2q-18 0 -25.5 1t-7.5 11z" />
<glyph unicode="&#xe0;" horiz-adv-x="1232" d="M37 324q0 137 68.5 270t199.5 244q106 90 226 136t239 46q61 0 162 -23l10 76q2 18 12 19q8 0 15 -5l164 -81q-23 -289 -31 -481.5t-8 -291.5q0 -117 8 -171t8 -62q0 -25 -39 -25q-72 0 -126 69t-54 198q0 37 5 85t13 109q-121 -229 -256 -345t-276 -116q-74 0 -136.5 26 t-107.5 72t-70.5 110.5t-25.5 140.5zM225 430q0 -109 60.5 -171t163.5 -62q160 0 278 152.5t184 455.5q-55 14 -107 22.5t-99 8.5q-106 0 -194.5 -33t-152 -88.5t-98.5 -129t-35 -155.5zM491 1487l222 -17q72 -176 204 -329l-129 -19q-221 178 -297 365z" />
<glyph unicode="&#xe1;" horiz-adv-x="1232" d="M37 324q0 137 68.5 270t199.5 244q106 90 226 136t239 46q61 0 162 -23l10 76q2 18 12 19q8 0 15 -5l164 -81q-23 -289 -31 -481.5t-8 -291.5q0 -117 8 -171t8 -62q0 -25 -39 -25q-72 0 -126 69t-54 198q0 37 5 85t13 109q-121 -229 -256 -345t-276 -116q-74 0 -136.5 26 t-107.5 72t-70.5 110.5t-25.5 140.5zM225 430q0 -109 60.5 -171t163.5 -62q160 0 278 152.5t184 455.5q-55 14 -107 22.5t-99 8.5q-106 0 -194.5 -33t-152 -88.5t-98.5 -129t-35 -155.5zM623 1141q74 86 124 169t80 160l222 17q-80 -186 -297 -365z" />
<glyph unicode="&#xe2;" horiz-adv-x="1232" d="M37 324q0 137 68.5 270t199.5 244q106 90 226 136t239 46q61 0 162 -23l10 76q2 18 12 19q8 0 15 -5l164 -81q-23 -289 -31 -481.5t-8 -291.5q0 -117 8 -171t8 -62q0 -25 -39 -25q-72 0 -126 69t-54 198q0 37 5 85t13 109q-121 -229 -256 -345t-276 -116q-74 0 -136.5 26 t-107.5 72t-70.5 110.5t-25.5 140.5zM225 430q0 -109 60.5 -171t163.5 -62q160 0 278 152.5t184 455.5q-55 14 -107 22.5t-99 8.5q-106 0 -194.5 -33t-152 -88.5t-98.5 -129t-35 -155.5zM471 1145l16 26l172 287l217 21l191 -330l-137 -19l-166 209l-121 -143 q-10 -12 -20.5 -24.5t-25.5 -21.5t-37.5 -14.5t-59.5 -5.5q-10 0 -19.5 5.5t-9.5 9.5z" />
<glyph unicode="&#xe3;" horiz-adv-x="1232" d="M37 324q0 137 68.5 270t199.5 244q106 90 226 136t239 46q61 0 162 -23l10 76q2 18 12 19q8 0 15 -5l164 -81q-23 -289 -31 -481.5t-8 -291.5q0 -117 8 -171t8 -62q0 -25 -39 -25q-72 0 -126 69t-54 198q0 37 5 85t13 109q-121 -229 -256 -345t-276 -116q-74 0 -136.5 26 t-107.5 72t-70.5 110.5t-25.5 140.5zM225 430q0 -109 60.5 -171t163.5 -62q160 0 278 152.5t184 455.5q-55 14 -107 22.5t-99 8.5q-106 0 -194.5 -33t-152 -88.5t-98.5 -129t-35 -155.5zM469 1167q39 219 192 219q39 0 84 -14l88 -24q14 -4 26.5 -5.5t25.5 -1.5 q31 0 53 18.5t33 55.5h100q-23 -117 -71 -171t-130 -54q-31 0 -67 10l-84 23q-16 4 -31.5 8t-32.5 4q-66 0 -86 -68h-100z" />
<glyph unicode="&#xe4;" horiz-adv-x="1232" d="M37 324q0 137 68.5 270t199.5 244q106 90 226 136t239 46q61 0 162 -23l10 76q2 18 12 19q8 0 15 -5l164 -81q-23 -289 -31 -481.5t-8 -291.5q0 -117 8 -171t8 -62q0 -25 -39 -25q-72 0 -126 69t-54 198q0 37 5 85t13 109q-121 -229 -256 -345t-276 -116q-74 0 -136.5 26 t-107.5 72t-70.5 110.5t-25.5 140.5zM225 430q0 -109 60.5 -171t163.5 -62q160 0 278 152.5t184 455.5q-55 14 -107 22.5t-99 8.5q-106 0 -194.5 -33t-152 -88.5t-98.5 -129t-35 -155.5zM467 1294q0 47 36 84t85 37t84 -36t35 -85q0 -53 -33 -86.5t-86 -33.5q-51 0 -86 34.5 t-35 85.5zM831 1294q0 47 36 84t85 37t84 -36t35 -85q0 -53 -32.5 -86.5t-86.5 -33.5q-51 0 -86 34.5t-35 85.5z" />
<glyph unicode="&#xe5;" horiz-adv-x="1232" d="M37 324q0 137 68.5 270t199.5 244q106 90 226 136t239 46q61 0 162 -23l10 76q2 18 12 19q8 0 15 -5l164 -81q-23 -289 -31 -481.5t-8 -291.5q0 -117 8 -171t8 -62q0 -25 -39 -25q-72 0 -126 69t-54 198q0 37 5 85t13 109q-121 -229 -256 -345t-276 -116q-74 0 -136.5 26 t-107.5 72t-70.5 110.5t-25.5 140.5zM225 430q0 -109 60.5 -171t163.5 -62q160 0 278 152.5t184 455.5q-55 14 -107 22.5t-99 8.5q-106 0 -194.5 -33t-152 -88.5t-98.5 -129t-35 -155.5zM512 1343q0 53 20.5 100.5t55.5 82.5t82 55.5t100 20.5t100.5 -20.5t82 -55.5t55 -82 t20.5 -101q0 -53 -20.5 -100t-55 -82t-82 -55.5t-100.5 -20.5t-100 19.5t-82 54.5t-55.5 82t-20.5 102zM643 1343q0 -53 38 -89.5t91 -36.5t90 36.5t37 89.5t-37 90t-90 37t-91 -36.5t-38 -90.5z" />
<glyph unicode="&#xe6;" horiz-adv-x="1910" d="M37 324q0 137 68.5 270t199.5 244q106 90 226 136t239 46q61 0 162 -23l10 76q2 18 12 19q8 0 15 -5l164 -81l-9 -101q92 55 192.5 85t203.5 30q150 0 236.5 -66.5t86.5 -171.5q0 -162 -188.5 -269t-558.5 -126q35 -111 119.5 -169t218.5 -58q84 0 150.5 12t114.5 25.5 t75.5 26t35.5 12.5q16 0 17 -21v-4l-29 -102q-111 -66 -226.5 -100t-230.5 -34q-172 0 -294.5 75t-182.5 212q-225 -287 -487 -287q-74 0 -136.5 26t-107.5 72t-70.5 110.5t-25.5 140.5zM225 430q0 -111 64.5 -174t175.5 -63q92 0 173 44t141.5 120.5t95 179t34.5 219.5 q0 10 1 22.5t1 26.5q-59 14 -109 22.5t-97 8.5q-106 0 -194.5 -33t-152 -88.5t-98.5 -129t-35 -155.5zM1085 506q252 37 375 102.5t123 169.5q0 45 -35 74t-102 29q-66 0 -129.5 -28t-112.5 -77t-82 -117.5t-37 -152.5z" />
<glyph unicode="&#xe7;" horiz-adv-x="1071" d="M51 428q0 117 55.5 224.5t154.5 188.5t238.5 130t309.5 49q96 0 182 -29l-18 -239q-2 -23 -12 -23t-19 8l-178 135h-14q-8 0 -19.5 1t-25.5 1q-96 0 -174 -27.5t-133.5 -78.5t-86 -120.5t-30.5 -151.5q0 -78 27.5 -142.5t78.5 -111.5t124 -73t163 -26q156 0 340 70 l-29 -123q-109 -59 -215 -87t-199 -28q-117 0 -213 34t-164.5 94.5t-105.5 143.5t-37 181zM285 -324q0 14 16 15q4 0 22.5 -7.5t51.5 -16.5t78 -16t104 -7q104 0 104 75q0 43 -32.5 60.5t-104.5 17.5q-10 0 -21 -1t-24 -1v205h90v-94h17q236 0 235 -193q0 -188 -264 -188 q-35 0 -94.5 7t-132.5 30l-39 98q-4 8 -4 12q-2 2 -2 4z" />
<glyph unicode="&#xe8;" horiz-adv-x="1138" d="M53 436q0 254 250 436q98 72 213 110t232 38q150 0 235.5 -66.5t85.5 -171.5q0 -166 -193.5 -273.5t-576.5 -125.5q39 -106 136 -164.5t247 -58.5q76 0 137.5 12t107.5 25.5t74.5 26t36.5 12.5q16 0 17 -21q0 -2 -1 -2t-1 -2l-29 -102q-111 -66 -226.5 -100t-228.5 -34 q-115 0 -210 36t-162.5 97.5t-105.5 145.5t-38 182zM281 504q268 35 399 100.5t131 173.5q0 45 -36 74t-103 29q-76 0 -146.5 -30t-125 -81t-87 -116.5t-32.5 -137.5v-12zM397 1487l222 -17q72 -176 204 -329l-129 -19q-221 178 -297 365z" />
<glyph unicode="&#xe9;" horiz-adv-x="1138" d="M53 436q0 254 250 436q98 72 213 110t232 38q150 0 235.5 -66.5t85.5 -171.5q0 -166 -193.5 -273.5t-576.5 -125.5q39 -106 136 -164.5t247 -58.5q76 0 137.5 12t107.5 25.5t74.5 26t36.5 12.5q16 0 17 -21q0 -2 -1 -2t-1 -2l-29 -102q-111 -66 -226.5 -100t-228.5 -34 q-115 0 -210 36t-162.5 97.5t-105.5 145.5t-38 182zM281 504q268 35 399 100.5t131 173.5q0 45 -36 74t-103 29q-76 0 -146.5 -30t-125 -81t-87 -116.5t-32.5 -137.5v-12zM529 1141q74 86 124 169t80 160l222 17q-80 -186 -297 -365z" />
<glyph unicode="&#xea;" horiz-adv-x="1138" d="M53 436q0 254 250 436q98 72 213 110t232 38q150 0 235.5 -66.5t85.5 -171.5q0 -166 -193.5 -273.5t-576.5 -125.5q39 -106 136 -164.5t247 -58.5q76 0 137.5 12t107.5 25.5t74.5 26t36.5 12.5q16 0 17 -21q0 -2 -1 -2t-1 -2l-29 -102q-111 -66 -226.5 -100t-228.5 -34 q-115 0 -210 36t-162.5 97.5t-105.5 145.5t-38 182zM281 504q268 35 399 100.5t131 173.5q0 45 -36 74t-103 29q-76 0 -146.5 -30t-125 -81t-87 -116.5t-32.5 -137.5v-12zM377 1145l16 26l172 287l217 21l191 -330l-137 -19l-166 209l-121 -143q-10 -12 -20.5 -24.5 t-25.5 -21.5t-37.5 -14.5t-59.5 -5.5q-10 0 -19.5 5.5t-9.5 9.5z" />
<glyph unicode="&#xeb;" horiz-adv-x="1138" d="M53 436q0 254 250 436q98 72 213 110t232 38q150 0 235.5 -66.5t85.5 -171.5q0 -166 -193.5 -273.5t-576.5 -125.5q39 -106 136 -164.5t247 -58.5q76 0 137.5 12t107.5 25.5t74.5 26t36.5 12.5q16 0 17 -21q0 -2 -1 -2t-1 -2l-29 -102q-111 -66 -226.5 -100t-228.5 -34 q-115 0 -210 36t-162.5 97.5t-105.5 145.5t-38 182zM281 504q268 35 399 100.5t131 173.5q0 45 -36 74t-103 29q-76 0 -146.5 -30t-125 -81t-87 -116.5t-32.5 -137.5v-12zM373 1294q0 47 36 84t85 37t84 -36t35 -85q0 -53 -33 -86.5t-86 -33.5q-51 0 -86 34.5t-35 85.5z M737 1294q0 47 36 84t85 37t84 -36t35 -85q0 -53 -32.5 -86.5t-86.5 -33.5q-51 0 -86 34.5t-35 85.5z" />
<glyph unicode="&#xec;" horiz-adv-x="530" d="M-11 1487l222 -17q72 -176 204 -329l-129 -19q-221 178 -297 365zM2 973q0 10 23 14l395 33l-51 -1020l-201 -25l-4 848l-152 131q-10 10 -10 19z" />
<glyph unicode="&#xed;" horiz-adv-x="530" d="M2 973q0 10 23 14l395 33l-51 -1020l-201 -25l-4 848l-152 131q-10 10 -10 19zM121 1141q74 86 124 169t80 160l222 17q-80 -186 -297 -365z" />
<glyph unicode="&#xee;" horiz-adv-x="530" d="M-31 1145l16 26l172 287l217 21l191 -330l-137 -19l-166 209l-121 -143q-10 -12 -20.5 -24.5t-25.5 -21.5t-37.5 -14.5t-59.5 -5.5q-10 0 -19.5 5.5t-9.5 9.5zM2 973q0 10 23 14l395 33l-51 -1020l-201 -25l-4 848l-152 131q-10 10 -10 19z" />
<glyph unicode="&#xef;" horiz-adv-x="530" d="M-35 1294q0 47 36 84t85 37t84 -36t35 -85q0 -53 -33 -86.5t-86 -33.5q-51 0 -86 34.5t-35 85.5zM2 973q0 10 23 14l395 33l-51 -1020l-201 -25l-4 848l-152 131q-10 10 -10 19zM329 1294q0 47 36 84t85 37t84 -36t35 -85q0 -53 -32.5 -86.5t-86.5 -33.5q-51 0 -86 34.5 t-35 85.5z" />
<glyph unicode="&#xf0;" horiz-adv-x="1193" d="M51 420q0 250 221 440q166 141 355 141q77 1 145 -26q-53 82 -96 139t-76 92l-326 -153l-6 118l258 117q-29 31 -73.5 76t-106.5 106l94 93q68 -53 127.5 -108.5t120.5 -102.5l262 125l25 10q12 0 12 -12q0 -66 -60.5 -105t-160.5 -90q186 -188 280.5 -356t94.5 -351 q0 -215 -162 -383q-104 -111 -222 -163t-259 -52q-98 0 -181.5 33t-141.5 91.5t-91 140.5t-33 180zM285 485q0 -86 23.5 -153.5t65.5 -114.5t96 -71.5t116 -24.5q63 0 121.5 27.5t103.5 79t70.5 125t25.5 163.5q0 82 -24.5 147.5t-65.5 112.5t-93.5 72.5t-109.5 25.5 q-70 0 -130 -27.5t-104 -78.5t-69.5 -123t-25.5 -160z" />
<glyph unicode="&#xf1;" horiz-adv-x="1269" d="M2 973q0 10 23 14l395 33l-37 -389q223 389 481 389q133 0 208 -95.5t75 -287.5q0 -162 -15.5 -310.5t-15.5 -279.5q0 -43 9.5 -63.5t9.5 -26.5q0 -18 -23 -18t-61.5 15t-73.5 50q-39 37 -49 95.5t-10 144.5q0 43 1 99t1 128q0 82 -5.5 144.5t-21.5 104.5t-47 63.5 t-82 21.5q-66 0 -135.5 -52.5t-128 -151.5t-95 -243.5t-36.5 -330.5v-27l-201 -25l-4 848l-152 131q-10 10 -10 19zM369 1167q39 219 192 219q39 0 84 -14l88 -24q14 -4 26.5 -5.5t25.5 -1.5q31 0 53 18.5t33 55.5h100q-23 -117 -71 -171t-130 -54q-31 0 -67 10l-84 23 q-16 4 -31.5 8t-32.5 4q-66 0 -86 -68h-100z" />
<glyph unicode="&#xf2;" horiz-adv-x="1193" d="M51 414q0 135 67.5 243.5t207.5 206.5l-47 56q-10 14 -11 18q0 4 25.5 17.5t72 27.5t110 25.5t140.5 11.5q117 0 213.5 -35t166 -95.5t107.5 -141t38 -175.5q0 -127 -54.5 -233.5t-164.5 -204.5q-94 -82 -197.5 -121t-226.5 -39q-98 0 -181.5 33t-141.5 91.5t-91 139 t-33 175.5zM285 465q0 -74 23.5 -136.5t64.5 -108.5t96 -72.5t117 -26.5q66 0 124 28.5t102 79t69.5 121t25.5 154.5q0 82 -27.5 148.5t-77.5 114.5t-121 74.5t-157 26.5h-10q-111 -76 -170 -181t-59 -222zM319 1487l222 -17q72 -176 204 -329l-129 -19q-221 178 -297 365z " />
<glyph unicode="&#xf3;" horiz-adv-x="1193" d="M51 414q0 135 67.5 243.5t207.5 206.5l-47 56q-10 14 -11 18q0 4 25.5 17.5t72 27.5t110 25.5t140.5 11.5q117 0 213.5 -35t166 -95.5t107.5 -141t38 -175.5q0 -127 -54.5 -233.5t-164.5 -204.5q-94 -82 -197.5 -121t-226.5 -39q-98 0 -181.5 33t-141.5 91.5t-91 139 t-33 175.5zM285 465q0 -74 23.5 -136.5t64.5 -108.5t96 -72.5t117 -26.5q66 0 124 28.5t102 79t69.5 121t25.5 154.5q0 82 -27.5 148.5t-77.5 114.5t-121 74.5t-157 26.5h-10q-111 -76 -170 -181t-59 -222zM451 1141q74 86 124 169t80 160l222 17q-80 -186 -297 -365z" />
<glyph unicode="&#xf4;" horiz-adv-x="1193" d="M51 414q0 135 67.5 243.5t207.5 206.5l-47 56q-10 14 -11 18q0 4 25.5 17.5t72 27.5t110 25.5t140.5 11.5q117 0 213.5 -35t166 -95.5t107.5 -141t38 -175.5q0 -127 -54.5 -233.5t-164.5 -204.5q-94 -82 -197.5 -121t-226.5 -39q-98 0 -181.5 33t-141.5 91.5t-91 139 t-33 175.5zM285 465q0 -74 23.5 -136.5t64.5 -108.5t96 -72.5t117 -26.5q66 0 124 28.5t102 79t69.5 121t25.5 154.5q0 82 -27.5 148.5t-77.5 114.5t-121 74.5t-157 26.5h-10q-111 -76 -170 -181t-59 -222zM299 1145l16 26l172 287l217 21l191 -330l-137 -19l-166 209 l-121 -143q-10 -12 -20.5 -24.5t-25.5 -21.5t-37.5 -14.5t-59.5 -5.5q-10 0 -19.5 5.5t-9.5 9.5z" />
<glyph unicode="&#xf5;" horiz-adv-x="1193" d="M51 414q0 135 67.5 243.5t207.5 206.5l-47 56q-10 14 -11 18q0 4 25.5 17.5t72 27.5t110 25.5t140.5 11.5q117 0 213.5 -35t166 -95.5t107.5 -141t38 -175.5q0 -127 -54.5 -233.5t-164.5 -204.5q-94 -82 -197.5 -121t-226.5 -39q-98 0 -181.5 33t-141.5 91.5t-91 139 t-33 175.5zM285 465q0 -74 23.5 -136.5t64.5 -108.5t96 -72.5t117 -26.5q66 0 124 28.5t102 79t69.5 121t25.5 154.5q0 82 -27.5 148.5t-77.5 114.5t-121 74.5t-157 26.5h-10q-111 -76 -170 -181t-59 -222zM297 1167q39 219 192 219q39 0 84 -14l88 -24q14 -4 26.5 -5.5 t25.5 -1.5q31 0 53 18.5t33 55.5h100q-23 -117 -71 -171t-130 -54q-31 0 -67 10l-84 23q-16 4 -31.5 8t-32.5 4q-66 0 -86 -68h-100z" />
<glyph unicode="&#xf6;" horiz-adv-x="1193" d="M51 414q0 135 67.5 243.5t207.5 206.5l-47 56q-10 14 -11 18q0 4 25.5 17.5t72 27.5t110 25.5t140.5 11.5q117 0 213.5 -35t166 -95.5t107.5 -141t38 -175.5q0 -127 -54.5 -233.5t-164.5 -204.5q-94 -82 -197.5 -121t-226.5 -39q-98 0 -181.5 33t-141.5 91.5t-91 139 t-33 175.5zM285 465q0 -74 23.5 -136.5t64.5 -108.5t96 -72.5t117 -26.5q66 0 124 28.5t102 79t69.5 121t25.5 154.5q0 82 -27.5 148.5t-77.5 114.5t-121 74.5t-157 26.5h-10q-111 -76 -170 -181t-59 -222zM295 1294q0 47 36 84t85 37t84 -36t35 -85q0 -53 -33 -86.5 t-86 -33.5q-51 0 -86 34.5t-35 85.5zM659 1294q0 47 36 84t85 37t84 -36t35 -85q0 -53 -32.5 -86.5t-86.5 -33.5q-51 0 -86 34.5t-35 85.5z" />
<glyph unicode="&#xf7;" horiz-adv-x="1705" d="M254 541v139h1198v-139h-1198zM729 242q0 53 37 89t88 36t88 -36t37 -89q0 -51 -36 -88t-89 -37t-89 35.5t-36 89.5zM729 979q0 53 37 90t88 37t88 -37t37 -90q0 -51 -36 -88t-89 -37t-89 36t-36 89z" />
<glyph unicode="&#xf8;" horiz-adv-x="1193" d="M12 -66q0 14 31 35t72 66l61 67q-125 127 -125 310q0 135 67.5 244.5t207.5 207.5l-47 56q-10 14 -11 18q0 4 25.5 17.5t72 27.5t110 25.5t140.5 11.5q82 0 156 -18.5t137 -53.5l103 121q12 14 18 14q10 0 19 -4l102 -39q14 -8 14 -14t-10 -16l-137 -142q59 -57 91 -135 t32 -160q0 -127 -53.5 -233.5t-165.5 -204.5q-94 -82 -197.5 -121t-226.5 -39q-137 0 -254 68l-31 -31q-49 -49 -97 -72.5t-77 -23.5q-27 0 -27 18zM274 467q0 -113 54 -201l454 529q-100 82 -260 82h-10q-113 -74 -175.5 -183.5t-62.5 -226.5zM389 195q90 -80 201 -80 q66 0 125 28.5t105 80.5t73 124t27 156q0 57 -13.5 108.5t-42.5 100.5z" />
<glyph unicode="&#xf9;" horiz-adv-x="1269" d="M-4 969q0 10 22 14l396 37q-16 -248 -22.5 -395.5t-6.5 -192.5q0 -123 24.5 -183.5t94.5 -60.5q53 0 113.5 51.5t122 153t120 252t107.5 350.5l196 25q-16 -324 -21 -522.5t-5 -272.5q0 -68 2 -111.5t5 -70.5t6 -39t3 -14q0 -14 -18 -15q-23 0 -61 13.5t-66 36.5 q-51 41 -62.5 96t-11.5 135v100q0 29 6 170q-102 -274 -236.5 -412.5t-277.5 -138.5q-86 0 -147.5 47.5t-85.5 137.5q-20 72 -24.5 185.5t-4.5 272.5v89q0 10 1 36.5t1 69.5l-158 137q-12 8 -12 19zM436 1487l222 -17q72 -176 204 -329l-129 -19q-221 178 -297 365z" />
<glyph unicode="&#xfa;" horiz-adv-x="1269" d="M-4 969q0 10 22 14l396 37q-16 -248 -22.5 -395.5t-6.5 -192.5q0 -123 24.5 -183.5t94.5 -60.5q53 0 113.5 51.5t122 153t120 252t107.5 350.5l196 25q-16 -324 -21 -522.5t-5 -272.5q0 -68 2 -111.5t5 -70.5t6 -39t3 -14q0 -14 -18 -15q-23 0 -61 13.5t-66 36.5 q-51 41 -62.5 96t-11.5 135v100q0 29 6 170q-102 -274 -236.5 -412.5t-277.5 -138.5q-86 0 -147.5 47.5t-85.5 137.5q-20 72 -24.5 185.5t-4.5 272.5v89q0 10 1 36.5t1 69.5l-158 137q-12 8 -12 19zM568 1141q74 86 124 169t80 160l222 17q-80 -186 -297 -365z" />
<glyph unicode="&#xfb;" horiz-adv-x="1269" d="M-4 969q0 10 22 14l396 37q-16 -248 -22.5 -395.5t-6.5 -192.5q0 -123 24.5 -183.5t94.5 -60.5q53 0 113.5 51.5t122 153t120 252t107.5 350.5l196 25q-16 -324 -21 -522.5t-5 -272.5q0 -68 2 -111.5t5 -70.5t6 -39t3 -14q0 -14 -18 -15q-23 0 -61 13.5t-66 36.5 q-51 41 -62.5 96t-11.5 135v100q0 29 6 170q-102 -274 -236.5 -412.5t-277.5 -138.5q-86 0 -147.5 47.5t-85.5 137.5q-20 72 -24.5 185.5t-4.5 272.5v89q0 10 1 36.5t1 69.5l-158 137q-12 8 -12 19zM416 1145l16 26l172 287l217 21l191 -330l-137 -19l-166 209l-121 -143 q-10 -12 -20.5 -24.5t-25.5 -21.5t-37.5 -14.5t-59.5 -5.5q-10 0 -19.5 5.5t-9.5 9.5z" />
<glyph unicode="&#xfc;" horiz-adv-x="1269" d="M-4 969q0 10 22 14l396 37q-16 -248 -22.5 -395.5t-6.5 -192.5q0 -123 24.5 -183.5t94.5 -60.5q53 0 113.5 51.5t122 153t120 252t107.5 350.5l196 25q-16 -324 -21 -522.5t-5 -272.5q0 -68 2 -111.5t5 -70.5t6 -39t3 -14q0 -14 -18 -15q-23 0 -61 13.5t-66 36.5 q-51 41 -62.5 96t-11.5 135v100q0 29 6 170q-102 -274 -236.5 -412.5t-277.5 -138.5q-86 0 -147.5 47.5t-85.5 137.5q-20 72 -24.5 185.5t-4.5 272.5v89q0 10 1 36.5t1 69.5l-158 137q-12 8 -12 19zM412 1294q0 47 36 84t85 37t84 -36t35 -85q0 -53 -33 -86.5t-86 -33.5 q-51 0 -86 34.5t-35 85.5zM776 1294q0 47 36 84t85 37t84 -36t35 -85q0 -53 -32.5 -86.5t-86.5 -33.5q-51 0 -86 34.5t-35 85.5z" />
<glyph unicode="&#xfd;" horiz-adv-x="1089" d="M-47 983q0 14 29 16l307 21l289 -756l333 733l181 9h12q14 0 14 -9q0 -2 -4 -14l-567 -1124q-102 -201 -250 -201q-47 0 -72.5 12.5t-25.5 28.5q0 8 13 20.5t34.5 32t47 48t50.5 71.5l109 195l-359 790l-133 111q-8 6 -8 16zM398 1141q74 86 124 169t80 160l222 17 q-80 -186 -297 -365z" />
<glyph unicode="&#xfe;" horiz-adv-x="1204" d="M-29 1499q0 14 19 14l383 27l-29 -840q82 154 210 237t267 83q76 0 140.5 -26.5t110.5 -75t71.5 -115t25.5 -148.5q0 -129 -67.5 -261t-198.5 -244q-102 -86 -211.5 -130.5t-220.5 -44.5q-72 0 -139 25l-23 -432l-172 -37l-14 1839l-141 113q-10 10 -11 16zM346 176 q86 -41 172 -41q92 0 174 34t143.5 92t97.5 136t36 164q0 57 -19.5 105.5t-52.5 83t-77 53t-95 18.5q-178 0 -273.5 -160.5t-105.5 -484.5z" />
<glyph unicode="&#xff;" horiz-adv-x="1089" d="M-47 983q0 14 29 16l307 21l289 -756l333 733l181 9h12q14 0 14 -9q0 -2 -4 -14l-567 -1124q-102 -201 -250 -201q-47 0 -72.5 12.5t-25.5 28.5q0 8 13 20.5t34.5 32t47 48t50.5 71.5l109 195l-359 790l-133 111q-8 6 -8 16zM242 1294q0 47 36 84t85 37t84 -36t35 -85 q0 -53 -33 -86.5t-86 -33.5q-51 0 -86 34.5t-35 85.5zM606 1294q0 47 36 84t85 37t84 -36t35 -85q0 -53 -32.5 -86.5t-86.5 -33.5q-51 0 -86 34.5t-35 85.5z" />
<glyph unicode="&#x152;" horiz-adv-x="2095" d="M66 610q0 295 178 529l-90 84q-10 10 -11 14q0 20 160 111q125 70 256 105.5t256 35.5q59 0 174 -12.5t289 -12.5h715q29 0 28 -12q0 -4 -4 -12l-49 -103l-622 -34l-19 -426l600 -5q20 0 21 -10q0 -6 -2 -10l-78 -102l-545 -54l-16 -297q0 -14 -1 -30.5t-1 -34.5 q0 -86 49 -118t162 -32l421 2q20 0 29.5 -3t9.5 -17q0 -18 -13 -41t-43 -42.5t-78 -34.5t-118 -17q-471 -16 -718.5 -36t-280.5 -20q-141 0 -262 47.5t-209 131.5t-138 200.5t-50 255.5zM272 752q0 -119 41 -225.5t114 -186.5t173 -127t219 -47q137 0 264 59l-6 981 q-92 41 -178 56.5t-178 15.5q-72 0 -131.5 -13t-110.5 -38q-102 -102 -154.5 -222t-52.5 -253z" />
<glyph unicode="&#x153;" horiz-adv-x="1961" d="M51 414q0 135 67.5 243.5t207.5 206.5l-47 56q-10 14 -11 18q0 4 25.5 17.5t72 27.5t110 25.5t140.5 11.5q147 0 262 -53.5t181 -149.5q115 100 245 151.5t269 51.5q150 0 235.5 -66.5t85.5 -171.5q0 -166 -194.5 -273.5t-577.5 -125.5q39 -106 137.5 -164.5t247.5 -58.5 q76 0 137.5 12t107.5 25.5t74.5 26t37.5 12.5q14 0 14 -21v-4l-29 -102q-111 -66 -227.5 -100t-228.5 -34q-141 0 -250 51.5t-178 149.5q-104 -102 -217 -151.5t-250 -49.5q-98 0 -181.5 33t-141.5 91.5t-91 139t-33 175.5zM285 465q0 -74 23.5 -136.5t64.5 -108.5t96 -72.5 t117 -26.5q66 0 124 28.5t102 79t69.5 121t25.5 154.5q0 82 -27.5 148.5t-77.5 114.5t-121 74.5t-157 26.5h-10q-111 -76 -170 -181t-59 -222zM1106 504q268 35 399 100.5t131 173.5q0 45 -35.5 74t-103.5 29q-76 0 -146.5 -30t-125 -81t-87 -116.5t-32.5 -137.5v-12z" />
<glyph unicode="&#x178;" horiz-adv-x="1318" d="M-23 1440q0 10 23 12l326 25l374 -942l383 915l203 12h12q14 0 15 -8q0 -8 -4 -14l-682 -1395q-57 -117 -116.5 -180.5t-156.5 -63.5q-49 0 -49 23q0 10 14.5 25.5t30.5 46.5l223 428l-442 944l-143 151q-6 6 -8.5 12.5t-2.5 8.5zM356 1763q0 47 36 84t85 37t84 -36 t35 -85q0 -53 -33 -86.5t-86 -33.5q-51 0 -86 34.5t-35 85.5zM720 1763q0 47 36 84t85 37t84 -36t35 -85q0 -53 -32.5 -86.5t-86.5 -33.5q-51 0 -86 34.5t-35 85.5z" />
<glyph unicode="&#x2c6;" d="M213 1145l16 26l172 287l217 21l191 -330l-137 -19l-166 209l-121 -143q-10 -12 -20.5 -24.5t-25.5 -21.5t-37.5 -14.5t-59.5 -5.5q-10 0 -19.5 5.5t-9.5 9.5z" />
<glyph unicode="&#x2dc;" d="M211 1167q39 219 192 219q39 0 84 -14l88 -24q14 -4 26.5 -5.5t25.5 -1.5q31 0 53 18.5t33 55.5h100q-23 -117 -71 -171t-130 -54q-31 0 -67 10l-84 23q-16 4 -31.5 8t-32.5 4q-66 0 -86 -68h-100z" />
<glyph unicode="&#x2000;" horiz-adv-x="993" />
<glyph unicode="&#x2001;" horiz-adv-x="1987" />
<glyph unicode="&#x2002;" horiz-adv-x="993" />
<glyph unicode="&#x2003;" horiz-adv-x="1987" />
<glyph unicode="&#x2004;" horiz-adv-x="662" />
<glyph unicode="&#x2005;" horiz-adv-x="496" />
<glyph unicode="&#x2006;" horiz-adv-x="331" />
<glyph unicode="&#x2007;" horiz-adv-x="331" />
<glyph unicode="&#x2008;" horiz-adv-x="248" />
<glyph unicode="&#x2009;" horiz-adv-x="397" />
<glyph unicode="&#x200a;" horiz-adv-x="110" />
<glyph unicode="&#x2010;" horiz-adv-x="634" d="M37 432q0 8 14 39l49 127l469 -2q47 0 47 -27q0 -10 -8 -31.5t-27.5 -43t-50 -38t-75.5 -18.5l-379 -14q-39 0 -39 8z" />
<glyph unicode="&#x2011;" horiz-adv-x="634" d="M37 432q0 8 14 39l49 127l469 -2q47 0 47 -27q0 -10 -8 -31.5t-27.5 -43t-50 -38t-75.5 -18.5l-379 -14q-39 0 -39 8z" />
<glyph unicode="&#x2012;" horiz-adv-x="634" d="M37 432q0 8 14 39l49 127l469 -2q47 0 47 -27q0 -10 -8 -31.5t-27.5 -43t-50 -38t-75.5 -18.5l-379 -14q-39 0 -39 8z" />
<glyph unicode="&#x2013;" d="M0 465v94q0 25 25 25h974q25 0 25 -25v-94q0 -25 -25 -25h-974q-25 0 -25 25z" />
<glyph unicode="&#x2014;" horiz-adv-x="2048" d="M0 465v94q0 25 25 25h1998q25 0 25 -25v-94q0 -25 -25 -25h-1998q-25 0 -25 25z" />
<glyph unicode="&#x2018;" horiz-adv-x="577" d="M174 1055q0 106 37 211.5t108 222.5l117 -57q-53 -150 -53 -340v-36t2 -32l-207 -43q-2 18 -3 36.5t-1 37.5z" />
<glyph unicode="&#x2019;" horiz-adv-x="577" d="M180 1038q53 150 53 340q0 16 -1 34t-1 34l207 43q2 -20 3 -38.5t1 -35.5q0 -104 -36.5 -210.5t-108.5 -223.5z" />
<glyph unicode="&#x201a;" horiz-adv-x="577" d="M133 -160q53 150 53 338q0 16 -1 33.5t-1 34.5l207 43q2 -20 3 -39t1 -35q0 -106 -36.5 -210.5t-108.5 -221.5z" />
<glyph unicode="&#x201c;" horiz-adv-x="909" d="M174 1055q0 106 37 211.5t108 222.5l117 -57q-53 -150 -53 -340v-36t2 -32l-207 -43q-2 18 -3 36.5t-1 37.5zM506 1055q0 106 37 211.5t108 222.5l117 -57q-53 -150 -53 -340v-36t2 -32l-207 -43q-2 18 -3 36.5t-1 37.5z" />
<glyph unicode="&#x201d;" horiz-adv-x="909" d="M180 1038q53 150 53 340q0 16 -1 34t-1 34l207 43q2 -20 3 -38.5t1 -35.5q0 -104 -36.5 -210.5t-108.5 -223.5zM512 1038q53 150 53 340q0 16 -1 34t-1 34l207 43q2 -20 3 -38.5t1 -35.5q0 -104 -37 -210.5t-108 -223.5z" />
<glyph unicode="&#x201e;" horiz-adv-x="909" d="M133 -160q53 150 53 338q0 16 -1 33.5t-1 34.5l207 43q2 -20 3 -39t1 -35q0 -106 -36.5 -210.5t-108.5 -221.5zM465 -160q53 150 53 338q0 16 -1 33.5t-1 34.5l207 43q2 -20 3 -39t1 -35q0 -106 -37 -210.5t-108 -221.5z" />
<glyph unicode="&#x2022;" horiz-adv-x="1208" d="M307 762q0 61 23.5 114.5t63.5 93.5t94.5 63.5t115.5 23.5t114.5 -23.5t93.5 -63.5t63.5 -93.5t23.5 -114.5t-23.5 -114.5t-63.5 -94.5t-94 -64.5t-116 -23.5q-61 0 -115.5 23.5t-94.5 63.5t-62.5 94.5t-22.5 115.5z" />
<glyph unicode="&#x2026;" horiz-adv-x="2048" d="M186 133q0 63 45 109.5t111 46.5t112 -45t46 -111q0 -33 -13.5 -61.5t-35 -50t-50 -34t-59.5 -12.5q-63 0 -109.5 47.5t-46.5 110.5zM868 133q0 63 45 109.5t111 46.5t112 -45t46 -111q0 -33 -13.5 -61.5t-35 -50t-50 -34t-59.5 -12.5q-63 0 -109.5 47.5t-46.5 110.5z M1552 133q0 63 45 109.5t111 46.5t112 -45t46 -111q0 -33 -13.5 -61.5t-35 -50t-50 -34t-59.5 -12.5q-63 0 -109.5 47.5t-46.5 110.5z" />
<glyph unicode="&#x202f;" horiz-adv-x="397" />
<glyph unicode="&#x2039;" horiz-adv-x="591" d="M51 520l326 369l149 2q14 0 15 -6l-4 -8l-277 -357l277 -354q4 -4 4 -8q0 -6 -15 -6l-149 2z" />
<glyph unicode="&#x203a;" horiz-adv-x="591" d="M51 156q0 2 4 10l277 354l-277 354q-4 8 -4 11q0 6 15 6l149 -4l326 -367l-326 -366l-149 -4q-14 0 -15 6z" />
<glyph unicode="&#x205f;" horiz-adv-x="496" />
<glyph unicode="&#x20ac;" horiz-adv-x="1157" d="M8 516l25 109h110v14q0 35 3.5 68.5t7.5 66.5l-146 -2l25 109h147q59 182 201 317q96 92 216 141.5t249 49.5q66 0 135.5 -14.5t116.5 -41.5l-13 -262q0 -16 -8 -16q-2 0 -10 4l-152 162q-23 10 -47 13t-45 3q-78 0 -143.5 -29.5t-115.5 -79t-87 -114t-59 -133.5h543 q4 -4 8 -3t4 -6q0 -59 -47 -76.5t-142 -17.5h-62.5t-91.5 -1t-112.5 -1h-122.5q-4 -29 -7 -54.5t-3 -51.5q0 -10 1 -22.5t1 -22.5h504q4 0 5 -1t3 -1q12 0 12 -11q0 -63 -53 -77.5t-164 -14.5h-114.5t-180.5 -2q14 -78 46 -147.5t81 -121.5t116 -84t153 -32q59 0 113.5 18.5 t96.5 40t69.5 40t31.5 18.5q8 0 8 -12q0 -6 -6 -43t-21 -103q-74 -55 -172 -86t-202 -31q-129 0 -242 62.5t-199 181.5q-49 66 -77.5 141.5t-40.5 155.5h-146z" />
<glyph unicode="&#x2122;" horiz-adv-x="1705" d="M242 1378v80h452v-80h-172v-458h-108v458h-172zM813 920v538h150l151 -385l141 385h150v-538h-98v444l-166 -444h-56l-174 444v-444h-98z" />
<glyph unicode="&#xe000;" d="M0 0v1024h1024v-1024h-1024z" />
</font>
</defs>
</svg>
